999
dxfrw 0.6.3
  0
SECTION
  2
HEADER
  9
$ACADVER
  1
AC1021
  9
$DWGCODEPAGE
  3
ANSI_1252
  9
$INSBASE
 10
0
 20
0
 30
0
  9
$EXTMIN
 10
-2.410943759087805e-015
 20
-4.362660135492219e-014
 30
0
  9
$EXTMAX
 10
978.125
 20
807.8125
 30
0
  9
$LIMMIN
 10
0
 20
0
  9
$LIMMAX
 10
420
 20
297
  9
$ORTHOMODE
 70
    0
  9
$REGENMODE
 70
    1
  9
$FILLMODE
 70
    1
  9
$QTEXTMODE
 70
    0
  9
$MIRRTEXT
 70
    0
  9
$LTSCALE
 40
1
  9
$ATTMODE
 70
    0
  9
$TEXTSIZE
 40
2.5
  9
$TRACEWID
 40
15.68
  9
$TEXTSTYLE
  7
STANDARD
  9
$CLAYER
  8
0
  9
$CELTYPE
  6
BYLAYER
  9
$CECOLOR
 62
  256
  9
$CELTSCALE
 40
1
  9
$DISPSILH
 70
    0
  9
$DIMSCALE
 40
2.5
  9
$DIMASZ
 40
2.5
  9
$DIMEXO
 40
0.625
  9
$DIMDLI
 40
3.75
  9
$DIMRND
 40
0
  9
$DIMDLE
 40
0
  9
$DIMEXE
 40
1.25
  9
$DIMTP
 40
0
  9
$DIMTM
 40
0
  9
$DIMTXT
 40
2.5
  9
$DIMCEN
 40
2.5
  9
$DIMTSZ
 40
0
  9
$DIMTOL
 70
    0
  9
$DIMLIM
 70
    0
  9
$DIMTIH
 70
    0
  9
$DIMTOH
 70
    0
  9
$DIMSE1
 70
    0
  9
$DIMSE2
 70
    0
  9
$DIMTAD
 70
    1
  9
$DIMZIN
 70
    1
  9
$DIMBLK
  1

  9
$DIMASO
 70
    1
  9
$DIMSHO
 70
    1
  9
$DIMPOST
  1

  9
$DIMAPOST
  1

  9
$DIMALT
 70
    0
  9
$DIMALTD
 70
    3
  9
$DIMALTF
 40
0.03937
  9
$DIMLFAC
 40
1
  9
$DIMTOFL
 70
    1
  9
$DIMTVP
 40
0
  9
$DIMTIX
 70
    0
  9
$DIMSOXD
 70
    0
  9
$DIMSAH
 70
    0
  9
$DIMBLK1
  1

  9
$DIMBLK2
  1

  9
$DIMSTYLE
  2
STANDARD
  9
$DIMCLRD
 70
   96
  9
$DIMCLRE
 70
   96
  9
$DIMCLRT
 70
    0
  9
$DIMTFAC
 40
1
  9
$DIMGAP
 40
0.625
  9
$DIMJUST
 70
    0
  9
$DIMSD1
 70
    0
  9
$DIMSD2
 70
    0
  9
$DIMTOLJ
 70
    0
  9
$DIMTZIN
 70
    8
  9
$DIMALTZ
 70
    0
  9
$DIMALTTZ
 70
    0
  9
$DIMUPT
 70
    0
  9
$DIMDEC
 70
    0
  9
$DIMTDEC
 70
    2
  9
$DIMALTU
 70
    2
  9
$DIMALTTD
 70
    3
  9
$DIMTXSTY
  7
standard
  9
$DIMAUNIT
 70
    0
  9
$DIMADEC
 70
    2
  9
$DIMALTRND
 40
0
  9
$DIMAZIN
 70
    0
  9
$DIMDSEP
 70
    0
  9
$DIMATFIT
 70
    3
  9
$DIMFRAC
 70
    0
  9
$DIMLDRBLK
  1
STANDARD
  9
$DIMLUNIT
 70
    2
  9
$DIMLWD
 70
   -2
  9
$DIMLWE
 70
   -2
  9
$DIMTMOVE
 70
    0
  9
$DIMFXL
 40
1
  9
$DIMFXLON
 70
    0
  9
$DIMJOGANG
 40
0.7854
  9
$DIMTFILL
 70
    0
  9
$DIMTFILLCLR
 70
    0
  9
$DIMARCSYM
 70
    0
  9
$DIMLTYPE
  6

  9
$DIMLTEX1
  6

  9
$DIMLTEX2
  6

  9
$LUNITS
 70
    2
  9
$LUPREC
 70
    4
  9
$SKETCHINC
 40
1
  9
$FILLETRAD
 40
0
  9
$AUNITS
 70
    0
  9
$AUPREC
 70
    2
  9
$MENU
  1
.
  9
$ELEVATION
 40
0
  9
$PELEVATION
 40
0
  9
$THICKNESS
 40
0
  9
$LIMCHECK
 70
    0
  9
$CHAMFERA
 40
0
  9
$CHAMFERB
 40
0
  9
$CHAMFERC
 40
0
  9
$CHAMFERD
 40
0
  9
$SKPOLY
 70
    0
  9
$USRTIMER
 70
    1
  9
$ANGBASE
 50
0
  9
$ANGDIR
 70
    0
  9
$PDMODE
 70
   34
  9
$PDSIZE
 40
0
  9
$PLINEWID
 40
0
  9
$SPLFRAME
 70
    0
  9
$SPLINETYPE
 70
    2
  9
$SPLINESEGS
 70
    8
  9
$HANDSEED
  5
20000
  9
$SURFTAB1
 70
    6
  9
$SURFTAB2
 70
    6
  9
$SURFTYPE
 70
    6
  9
$SURFU
 70
    6
  9
$SURFV
 70
    6
  9
$UCSBASE
  2

  9
$UCSNAME
  2

  9
$UCSORG
 10
0
 20
0
 30
0
  9
$UCSXDIR
 10
1
 20
0
 30
0
  9
$UCSYDIR
 10
0
 20
1
 30
0
  9
$UCSORTHOREF
  2

  9
$UCSORTHOVIEW
 70
    0
  9
$UCSORGTOP
 10
0
 20
0
 30
0
  9
$UCSORGBOTTOM
 10
0
 20
0
 30
0
  9
$UCSORGLEFT
 10
0
 20
0
 30
0
  9
$UCSORGRIGHT
 10
0
 20
0
 30
0
  9
$UCSORGFRONT
 10
0
 20
0
 30
0
  9
$UCSORGBACK
 10
0
 20
0
 30
0
  9
$PUCSBASE
  2

  9
$PUCSNAME
  2

  9
$PUCSORG
 10
0
 20
0
 30
0
  9
$PUCSXDIR
 10
1
 20
0
 30
0
  9
$PUCSYDIR
 10
0
 20
1
 30
0
  9
$PUCSORTHOREF
  2

  9
$PUCSORTHOVIEW
 70
    0
  9
$PUCSORGTOP
 10
0
 20
0
 30
0
  9
$PUCSORGBOTTOM
 10
0
 20
0
 30
0
  9
$PUCSORGLEFT
 10
0
 20
0
 30
0
  9
$PUCSORGRIGHT
 10
0
 20
0
 30
0
  9
$PUCSORGFRONT
 10
0
 20
0
 30
0
  9
$PUCSORGBACK
 10
0
 20
0
 30
0
  9
$USERI1
 70
    0
  9
$USERI2
 70
    0
  9
$USERI3
 70
    0
  9
$USERI4
 70
    0
  9
$USERI5
 70
    0
  9
$USERR1
 40
0
  9
$USERR2
 40
0
  9
$USERR3
 40
0
  9
$USERR4
 40
0
  9
$USERR5
 40
0
  9
$WORLDVIEW
 70
    1
  9
$SHADEDGE
 70
    3
  9
$SHADEDIF
 70
   70
  9
$TILEMODE
 70
    1
  9
$MAXACTVP
 70
   64
  9
$PINSBASE
 10
36.49806576402321
 20
12.50000000000001
 30
0
  9
$PLIMCHECK
 70
    0
  9
$PEXTMIN
 10
0
 20
0
 30
0
  9
$PEXTMAX
 10
0
 20
0
 30
0
  9
$GRIDMODE
 70
    1
  9
$SNAPSTYLE
 70
    0
  9
$GRIDUNIT
 10
0
 20
0
  9
$PLIMMIN
 10
0
 20
0
  9
$PLIMMAX
 10
297
 20
210
  9
$UNITMODE
 70
    0
  9
$VISRETAIN
 70
    1
  9
$PLINEGEN
 70
    0
  9
$PSLTSCALE
 70
    1
  9
$TREEDEPTH
 70
 3020
  9
$CMLSTYLE
  2
Standard
  9
$CMLJUST
 70
    0
  9
$CMLSCALE
 40
20
  9
$PROXYGRAPHICS
 70
    1
  9
$MEASUREMENT
 70
    1
  9
$CELWEIGHT
370
   -1
  9
$ENDCAPS
280
    0
  9
$JOINSTYLE
280
    0
  9
$LWDISPLAY
290
    0
  9
$INSUNITS
 70
    0
  9
$HYPERLINKBASE
  1

  9
$STYLESHEET
  1

  9
$XEDIT
290
    1
  9
$CEPSNTYPE
380
    0
  9
$PSTYLEMODE
290
    1
  9
$EXTNAMES
290
    1
  9
$PSVPSCALE
 40
0.2290137522758242
  9
$OLESTARTUP
290
    0
  9
$SORTENTS
280
  127
  9
$INDEXCTL
280
    0
  9
$HIDETEXT
280
    1
  9
$XCLIPFRAME
290
    0
  9
$HALOGAP
280
    0
  9
$OBSCOLOR
 70
  257
  9
$OBSLTYPE
280
    0
  9
$INTERSECTIONDISPLAY
280
    0
  9
$INTERSECTIONCOLOR
 70
  257
  9
$DIMASSOC
280
    1
  9
$PROJECTNAME
  1

  9
$CAMERADISPLAY
290
    0
  9
$LENSLENGTH
 40
50
  9
$CAMERAHEIGHT
 40
0
  9
$STEPSPERSEC
 40
2
  9
$STEPSIZE
 40
50
  9
$3DDWFPREC
 40
2
  9
$PSOLWIDTH
 40
5
  9
$PSOLHEIGHT
 40
80
  9
$LOFTANG1
 40
1.570796326794897
  9
$LOFTANG2
 40
1.570796326794897
  9
$LOFTMAG1
 40
0
  9
$LOFTMAG2
 40
0
  9
$LOFTPARAM
 70
    7
  9
$LOFTNORMALS
280
    1
  9
$LATITUDE
 40
1
  9
$LONGITUDE
 40
1
  9
$NORTHDIRECTION
 40
0
  9
$TIMEZONE
 70
-8000
  9
$LIGHTGLYPHDISPLAY
280
    1
  9
$TILEMODELIGHTSYNCH
280
    1
  9
$SOLIDHIST
280
    1
  9
$SHOWHIST
280
    1
  9
$DWFFRAME
280
    2
  9
$DGNFRAME
280
    0
  9
$REALWORLDSCALE
290
    1
  9
$INTERFERECOLOR
 62
    1
  9
$CSHADOW
280
    0
  9
$SHADOWPLANELOCATION
 40
0
  0
ENDSEC
  0
SECTION
  2
CLASSES
  0
ENDSEC
  0
SECTION
  2
TABLES
  0
TABLE
  2
VPORT
  5
8
330
0
100
AcDbSymbolTable
 70
    1
  0
VPORT
  5
31
330
2
100
AcDbSymbolTableRecord
100
AcDbViewportTableRecord
  2
*ACTIVE
 70
    0
 10
0
 20
0
 11
1
 21
1
 12
-106.7427677580379
 22
-13.34284596975474
 13
0
 23
0
 14
10
 24
10
 15
10
 25
10
 16
0
 26
0
 36
1
 17
0
 27
0
 37
0
 40
53.37138387901897
 41
2.096153846153846
 42
50
 43
0
 44
0
 50
0
 51
0
 71
    0
 72
  100
 73
    1
 74
    3
 75
    0
 76
    1
 77
    0
 78
    0
281
    0
 65
    1
110
0
120
0
130
0
111
1
121
0
131
0
112
0
122
1
132
0
 79
    0
146
0
348
10020
 60
    7
 61
    5
292
1
282
    1
141
0
142
0
 63
  250
421
3358443
  0
ENDTAB
  0
TABLE
  2
LTYPE
  5
5
330
0
100
AcDbSymbolTable
 70
    4
  0
LTYPE
  5
14
330
5
100
AcDbSymbolTableRecord
100
AcDbLinetypeTableRecord
  2
ByBlock
 70
    0
  3

 72
   65
 73
    0
 40
0
  0
LTYPE
  5
15
330
5
100
AcDbSymbolTableRecord
100
AcDbLinetypeTableRecord
  2
ByLayer
 70
    0
  3

 72
   65
 73
    0
 40
0
  0
LTYPE
  5
16
330
5
100
AcDbSymbolTableRecord
100
AcDbLinetypeTableRecord
  2
Continuous
 70
    0
  3
Solid line
 72
   65
 73
    0
 40
0
  0
LTYPE
  5
32
330
5
100
AcDbSymbolTableRecord
100
AcDbLinetypeTableRecord
  2
DOT
 70
    0
  3
Dot . . . . . . . . . . . . . . . . . . . . . .
 72
   65
 73
    2
 40
6.35
 49
0
 74
    0
 49
-6.35
 74
    0
  0
LTYPE
  5
33
330
5
100
AcDbSymbolTableRecord
100
AcDbLinetypeTableRecord
  2
DOTTINY
 70
    0
  3
Dot (.15x) .....................................
 72
   65
 73
    2
 40
0.9525
 49
0
 74
    0
 49
-0.9525
 74
    0
  0
LTYPE
  5
34
330
5
100
AcDbSymbolTableRecord
100
AcDbLinetypeTableRecord
  2
DOT2
 70
    0
  3
Dot (.5x) .....................................
 72
   65
 73
    2
 40
3.175
 49
0
 74
    0
 49
-3.175
 74
    0
  0
LTYPE
  5
35
330
5
100
AcDbSymbolTableRecord
100
AcDbLinetypeTableRecord
  2
DOTX2
 70
    0
  3
Dot (2x) .  .  .  .  .  .  .  .  .  .  .  .  .
 72
   65
 73
    2
 40
12.7
 49
0
 74
    0
 49
-12.7
 74
    0
  0
LTYPE
  5
36
330
5
100
AcDbSymbolTableRecord
100
AcDbLinetypeTableRecord
  2
DASHED
 70
    0
  3
Dashed _ _ _ _ _ _ _ _ _ _ _ _ _ _ _ _ _
 72
   65
 73
    2
 40
19.05
 49
12.7
 74
    0
 49
-6.35
 74
    0
  0
LTYPE
  5
37
330
5
100
AcDbSymbolTableRecord
100
AcDbLinetypeTableRecord
  2
DASHEDTINY
 70
    0
  3
Dashed (.15x) _ _ _ _ _ _ _ _ _ _ _ _ _ _ _ _ _
 72
   65
 73
    2
 40
2.8575
 49
1.905
 74
    0
 49
-0.9525
 74
    0
  0
LTYPE
  5
38
330
5
100
AcDbSymbolTableRecord
100
AcDbLinetypeTableRecord
  2
DASHED2
 70
    0
  3
Dashed (.5x) _ _ _ _ _ _ _ _ _ _ _ _ _ _ _ _ _
 72
   65
 73
    2
 40
9.524999999999999
 49
6.35
 74
    0
 49
-3.175
 74
    0
  0
LTYPE
  5
39
330
5
100
AcDbSymbolTableRecord
100
AcDbLinetypeTableRecord
  2
DASHEDX2
 70
    0
  3
Dashed (2x) ____  ____  ____  ____  ____  ___
 72
   65
 73
    2
 40
38.09999999999999
 49
25.4
 74
    0
 49
-12.7
 74
    0
  0
LTYPE
  5
3A
330
5
100
AcDbSymbolTableRecord
100
AcDbLinetypeTableRecord
  2
DASHDOT
 70
    0
  3
Dash dot __ . __ . __ . __ . __ . __ . __ . __
 72
   65
 73
    4
 40
25.4
 49
12.7
 74
    0
 49
-6.35
 74
    0
 49
0
 74
    0
 49
-6.35
 74
    0
  0
LTYPE
  5
3B
330
5
100
AcDbSymbolTableRecord
100
AcDbLinetypeTableRecord
  2
DASHDOTTINY
 70
    0
  3
Dash dot (.15x) _._._._._._._._._._._._._._._.
 72
   65
 73
    4
 40
3.81
 49
1.905
 74
    0
 49
-0.9525
 74
    0
 49
0
 74
    0
 49
-0.9525
 74
    0
  0
LTYPE
  5
3C
330
5
100
AcDbSymbolTableRecord
100
AcDbLinetypeTableRecord
  2
DASHDOT2
 70
    0
  3
Dash dot (.5x) _._._._._._._._._._._._._._._.
 72
   65
 73
    4
 40
12.7
 49
6.35
 74
    0
 49
-3.175
 74
    0
 49
0
 74
    0
 49
-3.175
 74
    0
  0
LTYPE
  5
3D
330
5
100
AcDbSymbolTableRecord
100
AcDbLinetypeTableRecord
  2
DASHDOTX2
 70
    0
  3
Dash dot (2x) ____  .  ____  .  ____  .  ___
 72
   65
 73
    4
 40
50.8
 49
25.4
 74
    0
 49
-12.7
 74
    0
 49
0
 74
    0
 49
-12.7
 74
    0
  0
LTYPE
  5
3E
330
5
100
AcDbSymbolTableRecord
100
AcDbLinetypeTableRecord
  2
DIVIDE
 70
    0
  3
Divide ____ . . ____ . . ____ . . ____ . . ____
 72
   65
 73
    6
 40
31.75
 49
12.7
 74
    0
 49
-6.35
 74
    0
 49
0
 74
    0
 49
-6.35
 74
    0
 49
0
 74
    0
 49
-6.35
 74
    0
  0
LTYPE
  5
3F
330
5
100
AcDbSymbolTableRecord
100
AcDbLinetypeTableRecord
  2
DIVIDETINY
 70
    0
  3
Divide (.15x) __..__..__..__..__..__..__..__.._
 72
   65
 73
    6
 40
4.7625
 49
1.905
 74
    0
 49
-0.9525
 74
    0
 49
0
 74
    0
 49
-0.9525
 74
    0
 49
0
 74
    0
 49
-0.9525
 74
    0
  0
LTYPE
  5
40
330
5
100
AcDbSymbolTableRecord
100
AcDbLinetypeTableRecord
  2
DIVIDE2
 70
    0
  3
Divide (.5x) __..__..__..__..__..__..__..__.._
 72
   65
 73
    6
 40
15.875
 49
6.35
 74
    0
 49
-3.175
 74
    0
 49
0
 74
    0
 49
-3.175
 74
    0
 49
0
 74
    0
 49
-3.175
 74
    0
  0
LTYPE
  5
41
330
5
100
AcDbSymbolTableRecord
100
AcDbLinetypeTableRecord
  2
DIVIDEX2
 70
    0
  3
Divide (2x) ________  .  .  ________  .  .  _
 72
   65
 73
    6
 40
63.5
 49
25.4
 74
    0
 49
-12.7
 74
    0
 49
0
 74
    0
 49
-12.7
 74
    0
 49
0
 74
    0
 49
-12.7
 74
    0
  0
LTYPE
  5
42
330
5
100
AcDbSymbolTableRecord
100
AcDbLinetypeTableRecord
  2
BORDER
 70
    0
  3
Border __ __ . __ __ . __ __ . __ __ . __ __ .
 72
   65
 73
    6
 40
44.45
 49
12.7
 74
    0
 49
-6.35
 74
    0
 49
12.7
 74
    0
 49
-6.35
 74
    0
 49
0
 74
    0
 49
-6.35
 74
    0
  0
LTYPE
  5
43
330
5
100
AcDbSymbolTableRecord
100
AcDbLinetypeTableRecord
  2
BORDERTINY
 70
    0
  3
Border (.15x) __.__.__.__.__.__.__.__.__.__.__.
 72
   65
 73
    6
 40
6.6675
 49
1.905
 74
    0
 49
-0.9525
 74
    0
 49
1.905
 74
    0
 49
-0.9525
 74
    0
 49
0
 74
    0
 49
-0.9525
 74
    0
  0
LTYPE
  5
44
330
5
100
AcDbSymbolTableRecord
100
AcDbLinetypeTableRecord
  2
BORDER2
 70
    0
  3
Border (.5x) __.__.__.__.__.__.__.__.__.__.__.
 72
   65
 73
    6
 40
22.225
 49
6.35
 74
    0
 49
-3.175
 74
    0
 49
6.35
 74
    0
 49
-3.175
 74
    0
 49
0
 74
    0
 49
-3.175
 74
    0
  0
LTYPE
  5
45
330
5
100
AcDbSymbolTableRecord
100
AcDbLinetypeTableRecord
  2
BORDERX2
 70
    0
  3
Border (2x) ____  ____  .  ____  ____  .  ___
 72
   65
 73
    6
 40
88.89999999999999
 49
25.4
 74
    0
 49
-12.7
 74
    0
 49
25.4
 74
    0
 49
-12.7
 74
    0
 49
0
 74
    0
 49
-12.7
 74
    0
  0
LTYPE
  5
46
330
5
100
AcDbSymbolTableRecord
100
AcDbLinetypeTableRecord
  2
CENTER
 70
    0
  3
Center ____ _ ____ _ ____ _ ____ _ ____ _ ____
 72
   65
 73
    4
 40
50.8
 49
31.75
 74
    0
 49
-6.35
 74
    0
 49
6.35
 74
    0
 49
-6.35
 74
    0
  0
LTYPE
  5
47
330
5
100
AcDbSymbolTableRecord
100
AcDbLinetypeTableRecord
  2
CENTERTINY
 70
    0
  3
Center (.15x) ___ _ ___ _ ___ _ ___ _ ___ _ ___
 72
   65
 73
    4
 40
7.62
 49
4.7625
 74
    0
 49
-0.9525
 74
    0
 49
0.9525
 74
    0
 49
-0.9525
 74
    0
  0
LTYPE
  5
48
330
5
100
AcDbSymbolTableRecord
100
AcDbLinetypeTableRecord
  2
CENTER2
 70
    0
  3
Center (.5x) ___ _ ___ _ ___ _ ___ _ ___ _ ___
 72
   65
 73
    4
 40
28.575
 49
19.05
 74
    0
 49
-3.175
 74
    0
 49
3.175
 74
    0
 49
-3.175
 74
    0
  0
LTYPE
  5
49
330
5
100
AcDbSymbolTableRecord
100
AcDbLinetypeTableRecord
  2
CENTERX2
 70
    0
  3
Center (2x) ________  __  ________  __  _____
 72
   65
 73
    4
 40
101.6
 49
63.5
 74
    0
 49
-12.7
 74
    0
 49
12.7
 74
    0
 49
-12.7
 74
    0
  0
ENDTAB
  0
TABLE
  2
LAYER
  5
2
330
0
100
AcDbSymbolTable
 70
    1
  0
LAYER
  5
10
330
2
100
AcDbSymbolTableRecord
100
AcDbLayerTableRecord
  2
0
 70
    0
 62
    7
  6
CONTINUOUS
370
    0
390
F
  0
ENDTAB
  0
TABLE
  2
STYLE
  5
3
330
0
100
AcDbSymbolTable
 70
    3
  0
STYLE
  5
4A
330
2
100
AcDbSymbolTableRecord
100
AcDbTextStyleTableRecord
  2
Standard
 70
    0
 40
0
 41
1
 50
0
 71
    0
 42
1
  3
txt
  4

  0
ENDTAB
  0
TABLE
  2
VIEW
  5
6
330
0
100
AcDbSymbolTable
 70
    0
  0
ENDTAB
  0
TABLE
  2
UCS
  5
7
330
0
100
AcDbSymbolTable
 70
    0
  0
ENDTAB
  0
TABLE
  2
APPID
  5
9
330
0
100
AcDbSymbolTable
 70
    1
  0
APPID
  5
12
330
9
100
AcDbSymbolTableRecord
100
AcDbRegAppTableRecord
  2
ACAD
 70
    0
  0
APPID
  5
4B
330
9
100
AcDbSymbolTableRecord
100
AcDbRegAppTableRecord
  2
LibreCad
 70
    0
  0
ENDTAB
  0
TABLE
  2
DIMSTYLE
  5
A
330
0
100
AcDbSymbolTable
 70
    1
100
AcDbDimStyleTable
 71
    1
  0
DIMSTYLE
105
4C
330
A
100
AcDbSymbolTableRecord
100
AcDbDimStyleTableRecord
  2
Standard
 70
    0
 40
2.5
 41
2.5
 42
0.625
 43
0.38
 44
1.25
 45
0
 46
0
 47
0
 48
0
 49
1
140
2.5
141
0.09
142
0
143
25.4
144
1
145
0
146
1
147
0.625
148
0
 71
    0
 72
    0
 73
    0
 74
    1
 75
    0
 76
    0
 77
    0
 78
    1
 79
    0
170
    0
171
    2
172
    0
173
    0
174
    0
175
    0
176
   96
177
   96
178
    0
179
    2
271
    0
272
    4
273
    2
274
    2
275
    0
276
    0
277
    2
278
    0
279
    0
280
    0
281
    0
282
    0
283
    1
284
    0
285
    0
286
    0
288
    0
289
    3
340
standard
341

371
   -2
372
   -2
  0
ENDTAB
  0
TABLE
  2
BLOCK_RECORD
  5
1
330
0
100
AcDbSymbolTable
 70
    2
  0
BLOCK_RECORD
  5
1F
330
1
100
AcDbSymbolTableRecord
100
AcDbBlockTableRecord
  2
*Model_Space
 70
    0
280
    1
281
    0
  0
BLOCK_RECORD
  5
1E
330
1
100
AcDbSymbolTableRecord
100
AcDbBlockTableRecord
  2
*Paper_Space
 70
    0
280
    1
281
    0
  0
BLOCK_RECORD
  5
4D
330
1
100
AcDbSymbolTableRecord
100
AcDbBlockTableRecord
  2
*D21
 70
    0
280
    1
281
    0
  0
BLOCK_RECORD
  5
50
330
1
100
AcDbSymbolTableRecord
100
AcDbBlockTableRecord
  2
*D23
 70
    0
280
    1
281
    0
  0
BLOCK_RECORD
  5
53
330
1
100
AcDbSymbolTableRecord
100
AcDbBlockTableRecord
  2
*D20
 70
    0
280
    1
281
    0
  0
BLOCK_RECORD
  5
56
330
1
100
AcDbSymbolTableRecord
100
AcDbBlockTableRecord
  2
*D19
 70
    0
280
    1
281
    0
  0
BLOCK_RECORD
  5
59
330
1
100
AcDbSymbolTableRecord
100
AcDbBlockTableRecord
  2
*D16
 70
    0
280
    1
281
    0
  0
BLOCK_RECORD
  5
5C
330
1
100
AcDbSymbolTableRecord
100
AcDbBlockTableRecord
  2
*D4
 70
    0
280
    1
281
    0
  0
BLOCK_RECORD
  5
5F
330
1
100
AcDbSymbolTableRecord
100
AcDbBlockTableRecord
  2
*D10
 70
    0
280
    1
281
    0
  0
BLOCK_RECORD
  5
62
330
1
100
AcDbSymbolTableRecord
100
AcDbBlockTableRecord
  2
*D11
 70
    0
280
    1
281
    0
  0
BLOCK_RECORD
  5
65
330
1
100
AcDbSymbolTableRecord
100
AcDbBlockTableRecord
  2
*D3
 70
    0
280
    1
281
    0
  0
BLOCK_RECORD
  5
68
330
1
100
AcDbSymbolTableRecord
100
AcDbBlockTableRecord
  2
*D17
 70
    0
280
    1
281
    0
  0
BLOCK_RECORD
  5
6B
330
1
100
AcDbSymbolTableRecord
100
AcDbBlockTableRecord
  2
*D15
 70
    0
280
    1
281
    0
  0
BLOCK_RECORD
  5
6E
330
1
100
AcDbSymbolTableRecord
100
AcDbBlockTableRecord
  2
*D2
 70
    0
280
    1
281
    0
  0
BLOCK_RECORD
  5
71
330
1
100
AcDbSymbolTableRecord
100
AcDbBlockTableRecord
  2
*D5
 70
    0
280
    1
281
    0
  0
BLOCK_RECORD
  5
74
330
1
100
AcDbSymbolTableRecord
100
AcDbBlockTableRecord
  2
*D28
 70
    0
280
    1
281
    0
  0
BLOCK_RECORD
  5
77
330
1
100
AcDbSymbolTableRecord
100
AcDbBlockTableRecord
  2
*D6
 70
    0
280
    1
281
    0
  0
BLOCK_RECORD
  5
7A
330
1
100
AcDbSymbolTableRecord
100
AcDbBlockTableRecord
  2
*D22
 70
    0
280
    1
281
    0
  0
BLOCK_RECORD
  5
7D
330
1
100
AcDbSymbolTableRecord
100
AcDbBlockTableRecord
  2
*D8
 70
    0
280
    1
281
    0
  0
BLOCK_RECORD
  5
80
330
1
100
AcDbSymbolTableRecord
100
AcDbBlockTableRecord
  2
*D9
 70
    0
280
    1
281
    0
  0
BLOCK_RECORD
  5
83
330
1
100
AcDbSymbolTableRecord
100
AcDbBlockTableRecord
  2
*D1
 70
    0
280
    1
281
    0
  0
BLOCK_RECORD
  5
86
330
1
100
AcDbSymbolTableRecord
100
AcDbBlockTableRecord
  2
*D25
 70
    0
280
    1
281
    0
  0
BLOCK_RECORD
  5
89
330
1
100
AcDbSymbolTableRecord
100
AcDbBlockTableRecord
  2
*D14
 70
    0
280
    1
281
    0
  0
BLOCK_RECORD
  5
8C
330
1
100
AcDbSymbolTableRecord
100
AcDbBlockTableRecord
  2
*D29
 70
    0
280
    1
281
    0
  0
BLOCK_RECORD
  5
8F
330
1
100
AcDbSymbolTableRecord
100
AcDbBlockTableRecord
  2
*D13
 70
    0
280
    1
281
    0
  0
BLOCK_RECORD
  5
92
330
1
100
AcDbSymbolTableRecord
100
AcDbBlockTableRecord
  2
*D24
 70
    0
280
    1
281
    0
  0
BLOCK_RECORD
  5
95
330
1
100
AcDbSymbolTableRecord
100
AcDbBlockTableRecord
  2
*D7
 70
    0
280
    1
281
    0
  0
BLOCK_RECORD
  5
98
330
1
100
AcDbSymbolTableRecord
100
AcDbBlockTableRecord
  2
*D18
 70
    0
280
    1
281
    0
  0
BLOCK_RECORD
  5
9B
330
1
100
AcDbSymbolTableRecord
100
AcDbBlockTableRecord
  2
*D12
 70
    0
280
    1
281
    0
  0
BLOCK_RECORD
  5
9E
330
1
100
AcDbSymbolTableRecord
100
AcDbBlockTableRecord
  2
*D27
 70
    0
280
    1
281
    0
  0
BLOCK_RECORD
  5
A1
330
1
100
AcDbSymbolTableRecord
100
AcDbBlockTableRecord
  2
*D26
 70
    0
280
    1
281
    0
  0
ENDTAB
  0
ENDSEC
  0
SECTION
  2
BLOCKS
  0
BLOCK
  5
20
330
1F
100
AcDbEntity
  8
0
100
AcDbBlockBegin
  2
*Model_Space
 70
    0
 10
0
 20
0
 30
0
  3
*Model_Space
  1

  0
ENDBLK
  5
21
330
1F
100
AcDbEntity
  8
0
100
AcDbBlockEnd
  0
BLOCK
  5
1C
330
1B
100
AcDbEntity
  8
0
100
AcDbBlockBegin
  2
*Paper_Space
 70
    0
 10
0
 20
0
 30
0
  3
*Paper_Space
  1

  0
ENDBLK
  5
1D
330
1F
100
AcDbEntity
  8
0
100
AcDbBlockEnd
  0
BLOCK
  5
4E
330
4D
100
AcDbEntity
  8
0
100
AcDbBlockBegin
  2
*D21
 70
    1
 10
0
 20
0
  3
*D21
  1

  0
LINE
  5
A4
100
AcDbEntity
  8
0
  6
ByBlock
 62
   96
370
   -2
100
AcDbLine
 10
741.5625
 20
600
 11
743.125
 21
600
  0
LINE
  5
A5
100
AcDbEntity
  8
0
  6
ByBlock
 62
   96
370
   -2
100
AcDbLine
 10
716.5625
 20
600
 11
718.125
 21
600
  0
LINE
  5
A6
100
AcDbEntity
  8
0
  6
ByBlock
 62
   96
370
   -2
100
AcDbLine
 10
740
 20
600
 11
715
 21
600
  0
SOLID
  5
A7
100
AcDbEntity
  8
0
  6
ByBlock
 62
   96
370
   -2
100
AcDbTrace
 10
740
 20
600
 30
0
 11
733.75
 21
598.9592883555679
 31
0
 12
733.75
 22
601.0407116444321
 32
0
 13
733.75
 23
601.0407116444321
 33
0
  0
SOLID
  5
A8
100
AcDbEntity
  8
0
  6
ByBlock
 62
   96
370
   -2
100
AcDbTrace
 10
715
 20
600
 30
0
 11
721.25
 21
601.0407116444321
 31
0
 12
721.25
 22
598.9592883555679
 32
0
 13
721.25
 23
598.9592883555679
 33
0
  0
MTEXT
  5
A9
100
AcDbEntity
  8
0
  6
CONTINUOUS
 62
    0
370
   -2
100
AcDbMText
 10
727.5
 20
604.6875
 30
0
 40
6.25
 41
7.638888888889277
 71
    5
 72
    1
  1
25
  7
standard
210
0
220
0
230
1
 50
0
 73
    2
 44
1
  0
ENDBLK
  5
4F
330
4D
100
AcDbEntity
  8
0
100
AcDbBlockEnd
  0
BLOCK
  5
51
330
50
100
AcDbEntity
  8
0
100
AcDbBlockBegin
  2
*D23
 70
    1
 10
0
 20
0
  3
*D23
  1

  0
LINE
  5
AA
100
AcDbEntity
  8
0
  6
ByBlock
 62
   96
370
   -2
100
AcDbLine
 10
500
 20
246.5625
 11
500
 21
248.125
  0
LINE
  5
AB
100
AcDbEntity
  8
0
  6
ByBlock
 62
   96
370
   -2
100
AcDbLine
 10
500
 20
1.5625
 11
500
 21
3.125
  0
LINE
  5
AC
100
AcDbEntity
  8
0
  6
ByBlock
 62
   96
370
   -2
100
AcDbLine
 10
500
 20
245
 11
500
 21
1.19972857745771e-030
  0
SOLID
  5
AD
100
AcDbEntity
  8
0
  6
ByBlock
 62
   96
370
   -2
100
AcDbTrace
 10
500
 20
245
 30
0
 11
501.0407116444321
 21
238.75
 31
0
 12
498.9592883555679
 22
238.75
 32
0
 13
498.9592883555679
 23
238.75
 33
0
  0
SOLID
  5
AE
100
AcDbEntity
  8
0
  6
ByBlock
 62
   96
370
   -2
100
AcDbTrace
 10
500
 20
1.19972857745771e-030
 30
0
 11
498.9592883555679
 21
6.25
 31
0
 12
501.0407116444321
 22
6.25
 32
0
 13
501.0407116444321
 23
6.25
 33
0
  0
MTEXT
  5
AF
100
AcDbEntity
  8
0
  6
CONTINUOUS
 62
    0
370
   -2
100
AcDbMText
 10
495.3125
 20
122.5
 30
0
 40
6.25
 41
13.19444444444483
 71
    5
 72
    1
  1
245
  7
standard
210
0
220
0
230
1
 50
90
 73
    2
 44
1
  0
ENDBLK
  5
52
330
50
100
AcDbEntity
  8
0
100
AcDbBlockEnd
  0
BLOCK
  5
54
330
53
100
AcDbEntity
  8
0
100
AcDbBlockBegin
  2
*D20
 70
    1
 10
0
 20
0
  3
*D20
  1

  0
LINE
  5
B0
100
AcDbEntity
  8
0
  6
ByBlock
 62
   96
370
   -2
100
AcDbLine
 10
716.5625
 20
615
 11
718.125
 21
615
  0
LINE
  5
B1
100
AcDbEntity
  8
0
  6
ByBlock
 62
   96
370
   -2
100
AcDbLine
 10
801.5625
 20
615
 11
803.125
 21
615
  0
LINE
  5
B2
100
AcDbEntity
  8
0
  6
ByBlock
 62
   96
370
   -2
100
AcDbLine
 10
715
 20
615
 11
800
 21
615
  0
SOLID
  5
B3
100
AcDbEntity
  8
0
  6
ByBlock
 62
   96
370
   -2
100
AcDbTrace
 10
715
 20
615
 30
0
 11
721.25
 21
616.0407116444321
 31
0
 12
721.25
 22
613.9592883555679
 32
0
 13
721.25
 23
613.9592883555679
 33
0
  0
SOLID
  5
B4
100
AcDbEntity
  8
0
  6
ByBlock
 62
   96
370
   -2
100
AcDbTrace
 10
800
 20
615
 30
0
 11
793.75
 21
613.9592883555679
 31
0
 12
793.75
 22
616.0407116444321
 32
0
 13
793.75
 23
616.0407116444321
 33
0
  0
MTEXT
  5
B5
100
AcDbEntity
  8
0
  6
CONTINUOUS
 62
    0
370
   -2
100
AcDbMText
 10
757.5
 20
619.6875
 30
0
 40
6.25
 41
7.638888888889277
 71
    5
 72
    1
  1
85
  7
standard
210
0
220
0
230
1
 50
0
 73
    2
 44
1
  0
ENDBLK
  5
55
330
53
100
AcDbEntity
  8
0
100
AcDbBlockEnd
  0
BLOCK
  5
57
330
56
100
AcDbEntity
  8
0
100
AcDbBlockBegin
  2
*D19
 70
    1
 10
0
 20
0
  3
*D19
  1

  0
LINE
  5
B6
100
AcDbEntity
  8
0
  6
ByBlock
 62
   96
370
   -2
100
AcDbLine
 10
701.5625
 20
580
 11
703.125
 21
580
  0
LINE
  5
B7
100
AcDbEntity
  8
0
  6
ByBlock
 62
   96
370
   -2
100
AcDbLine
 10
716.5625
 20
580
 11
718.125
 21
580
  0
LINE
  5
B8
100
AcDbEntity
  8
0
  6
ByBlock
 62
   96
370
   -2
100
AcDbLine
 10
687.5
 20
580
 11
727.5
 21
580
  0
SOLID
  5
B9
100
AcDbEntity
  8
0
  6
ByBlock
 62
   96
370
   -2
100
AcDbTrace
 10
700
 20
580
 30
0
 11
693.75
 21
578.9592883555679
 31
0
 12
693.75
 22
581.0407116444321
 32
0
 13
693.75
 23
581.0407116444321
 33
0
  0
SOLID
  5
BA
100
AcDbEntity
  8
0
  6
ByBlock
 62
   96
370
   -2
100
AcDbTrace
 10
715
 20
580
 30
0
 11
721.25
 21
581.0407116444321
 31
0
 12
721.25
 22
578.9592883555679
 32
0
 13
721.25
 23
578.9592883555679
 33
0
  0
MTEXT
  5
BB
100
AcDbEntity
  8
0
  6
CONTINUOUS
 62
    0
370
   -2
100
AcDbMText
 10
707.5
 20
584.6875
 30
0
 40
6.25
 41
6.250000000000387
 71
    5
 72
    1
  1
15
  7
standard
210
0
220
0
230
1
 50
0
 73
    2
 44
1
  0
ENDBLK
  5
58
330
56
100
AcDbEntity
  8
0
100
AcDbBlockEnd
  0
BLOCK
  5
5A
330
59
100
AcDbEntity
  8
0
100
AcDbBlockBegin
  2
*D16
 70
    1
 10
0
 20
0
  3
*D16
  1

  0
LINE
  5
BC
100
AcDbEntity
  8
0
  6
ByBlock
 62
   96
370
   -2
100
AcDbLine
 10
51.5625
 20
650
 11
53.125
 21
650
  0
LINE
  5
BD
100
AcDbEntity
  8
0
  6
ByBlock
 62
   96
370
   -2
100
AcDbLine
 10
51.5625
 20
600
 11
53.125
 21
600
  0
LINE
  5
BE
100
AcDbEntity
  8
0
  6
ByBlock
 62
   96
370
   -2
100
AcDbLine
 10
50
 20
650
 11
50
 21
600
  0
SOLID
  5
BF
100
AcDbEntity
  8
0
  6
ByBlock
 62
   96
370
   -2
100
AcDbTrace
 10
50
 20
650
 30
0
 11
51.0407116444321
 21
643.75
 31
0
 12
48.9592883555679
 22
643.75
 32
0
 13
48.9592883555679
 23
643.75
 33
0
  0
SOLID
  5
C0
100
AcDbEntity
  8
0
  6
ByBlock
 62
   96
370
   -2
100
AcDbTrace
 10
50
 20
600
 30
0
 11
48.9592883555679
 21
606.25
 31
0
 12
51.0407116444321
 22
606.25
 32
0
 13
51.0407116444321
 23
606.25
 33
0
  0
MTEXT
  5
C1
100
AcDbEntity
  8
0
  6
CONTINUOUS
 62
    0
370
   -2
100
AcDbMText
 10
45.3125
 20
625
 30
0
 40
6.25
 41
7.638888888889277
 71
    5
 72
    1
  1
50
  7
standard
210
0
220
0
230
1
 50
90
 73
    2
 44
1
  0
ENDBLK
  5
5B
330
59
100
AcDbEntity
  8
0
100
AcDbBlockEnd
  0
BLOCK
  5
5D
330
5C
100
AcDbEntity
  8
0
100
AcDbBlockBegin
  2
*D4
 70
    1
 10
0
 20
0
  3
*D4
  1

  0
LINE
  5
C2
100
AcDbEntity
  8
0
  6
ByBlock
 62
   96
370
   -2
100
AcDbLine
 10
750
 20
51.5625
 11
750
 21
53.125
  0
LINE
  5
C3
100
AcDbEntity
  8
0
  6
ByBlock
 62
   96
370
   -2
100
AcDbLine
 10
750
 20
1.5625
 11
750
 21
3.125
  0
LINE
  5
C4
100
AcDbEntity
  8
0
  6
ByBlock
 62
   96
370
   -2
100
AcDbLine
 10
750
 20
50
 11
750
 21
5.99864288728855e-031
  0
SOLID
  5
C5
100
AcDbEntity
  8
0
  6
ByBlock
 62
   96
370
   -2
100
AcDbTrace
 10
750
 20
50
 30
0
 11
751.0407116444321
 21
43.75
 31
0
 12
748.9592883555679
 22
43.75
 32
0
 13
748.9592883555679
 23
43.75
 33
0
  0
SOLID
  5
C6
100
AcDbEntity
  8
0
  6
ByBlock
 62
   96
370
   -2
100
AcDbTrace
 10
750
 20
5.99864288728855e-031
 30
0
 11
748.9592883555679
 21
6.25
 31
0
 12
751.0407116444321
 22
6.25
 32
0
 13
751.0407116444321
 23
6.25
 33
0
  0
MTEXT
  5
C7
100
AcDbEntity
  8
0
  6
CONTINUOUS
 62
    0
370
   -2
100
AcDbMText
 10
745.3125
 20
25
 30
0
 40
6.25
 41
7.638888888889277
 71
    5
 72
    1
  1
50
  7
standard
210
0
220
0
230
1
 50
90
 73
    2
 44
1
  0
ENDBLK
  5
5E
330
5C
100
AcDbEntity
  8
0
100
AcDbBlockEnd
  0
BLOCK
  5
60
330
5F
100
AcDbEntity
  8
0
100
AcDbBlockBegin
  2
*D10
 70
    1
 10
0
 20
0
  3
*D10
  1

  0
LINE
  5
C8
100
AcDbEntity
  8
0
  6
ByBlock
 62
   96
370
   -2
100
AcDbLine
 10
51.5625
 20
650
 11
53.125
 21
650
  0
LINE
  5
C9
100
AcDbEntity
  8
0
  6
ByBlock
 62
   96
370
   -2
100
AcDbLine
 10
1.5625
 20
650
 11
3.125
 21
650
  0
LINE
  5
CA
100
AcDbEntity
  8
0
  6
ByBlock
 62
   96
370
   -2
100
AcDbLine
 10
50
 20
650
 11
6.748473248199618e-031
 21
650
  0
SOLID
  5
CB
100
AcDbEntity
  8
0
  6
ByBlock
 62
   96
370
   -2
100
AcDbTrace
 10
50
 20
650
 30
0
 11
43.75
 21
648.9592883555679
 31
0
 12
43.75
 22
651.0407116444321
 32
0
 13
43.75
 23
651.0407116444321
 33
0
  0
SOLID
  5
CC
100
AcDbEntity
  8
0
  6
ByBlock
 62
   96
370
   -2
100
AcDbTrace
 10
6.748473248199618e-031
 20
650
 30
0
 11
6.25
 21
651.0407116444321
 31
0
 12
6.25
 22
648.9592883555679
 32
0
 13
6.25
 23
648.9592883555679
 33
0
  0
MTEXT
  5
CD
100
AcDbEntity
  8
0
  6
CONTINUOUS
 62
    0
370
   -2
100
AcDbMText
 10
25
 20
654.6875
 30
0
 40
6.25
 41
7.638888888889277
 71
    5
 72
    1
  1
50
  7
standard
210
0
220
0
230
1
 50
0
 73
    2
 44
1
  0
ENDBLK
  5
61
330
5F
100
AcDbEntity
  8
0
100
AcDbBlockEnd
  0
BLOCK
  5
63
330
62
100
AcDbEntity
  8
0
100
AcDbBlockBegin
  2
*D11
 70
    1
 10
0
 20
0
  3
*D11
  1

  0
SOLID
  5
CE
100
AcDbEntity
  8
0
  6
ByBlock
 62
   96
370
   -2
100
AcDbTrace
 10
52.68328157299975
 20
651.3416407864999
 30
0
 11
57.80803112036411
 21
655.0675665511449
 31
0
 12
58.7388719131344
 22
653.2058849656042
 32
0
 13
58.7388719131344
 23
653.2058849656042
 33
0
  0
LINE
  5
CF
100
AcDbEntity
  8
0
  6
ByBlock
 62
   96
370
   -2
100
AcDbLine
 10
50
 20
650
 11
66.34814143549886
 21
658.1740707177493
  0
MTEXT
  5
D0
100
AcDbEntity
  8
0
  6
CONTINUOUS
 62
    0
370
   -2
100
AcDbMText
 10
57.41939777534327
 20
658.9504832099367
 30
0
 40
6.25
 41
2.777777777778165
 71
    5
 72
    1
  1
3
  7
standard
210
0
220
0
230
1
 50
26.56505117707757
 73
    2
 44
1
  0
ENDBLK
  5
64
330
62
100
AcDbEntity
  8
0
100
AcDbBlockEnd
  0
BLOCK
  5
66
330
65
100
AcDbEntity
  8
0
100
AcDbBlockBegin
  2
*D3
 70
    1
 10
0
 20
0
  3
*D3
  1

  0
LINE
  5
D1
100
AcDbEntity
  8
0
  6
ByBlock
 62
   96
370
   -2
100
AcDbLine
 10
751.5625
 20
50
 11
753.125
 21
50
  0
LINE
  5
D2
100
AcDbEntity
  8
0
  6
ByBlock
 62
   96
370
   -2
100
AcDbLine
 10
801.5625
 20
50
 11
803.125
 21
50
  0
LINE
  5
D3
100
AcDbEntity
  8
0
  6
ByBlock
 62
   96
370
   -2
100
AcDbLine
 10
750
 20
50
 11
800
 21
50
  0
SOLID
  5
D4
100
AcDbEntity
  8
0
  6
ByBlock
 62
   96
370
   -2
100
AcDbTrace
 10
750
 20
50
 30
0
 11
756.25
 21
51.0407116444321
 31
0
 12
756.25
 22
48.9592883555679
 32
0
 13
756.25
 23
48.9592883555679
 33
0
  0
SOLID
  5
D5
100
AcDbEntity
  8
0
  6
ByBlock
 62
   96
370
   -2
100
AcDbTrace
 10
800
 20
50
 30
0
 11
793.75
 21
48.9592883555679
 31
0
 12
793.75
 22
51.0407116444321
 32
0
 13
793.75
 23
51.0407116444321
 33
0
  0
MTEXT
  5
D6
100
AcDbEntity
  8
0
  6
CONTINUOUS
 62
    0
370
   -2
100
AcDbMText
 10
775
 20
54.6875
 30
0
 40
6.25
 41
7.638888888889277
 71
    5
 72
    1
  1
50
  7
standard
210
0
220
0
230
1
 50
0
 73
    2
 44
1
  0
ENDBLK
  5
67
330
65
100
AcDbEntity
  8
0
100
AcDbBlockEnd
  0
BLOCK
  5
69
330
68
100
AcDbEntity
  8
0
100
AcDbBlockBegin
  2
*D17
 70
    1
 10
0
 20
0
  3
*D17
  1

  0
LINE
  5
D7
100
AcDbEntity
  8
0
  6
ByBlock
 62
   96
370
   -2
100
AcDbLine
 10
51.5625
 20
50
 11
53.125
 21
50
  0
LINE
  5
D8
100
AcDbEntity
  8
0
  6
ByBlock
 62
   96
370
   -2
100
AcDbLine
 10
51.5625
 20
100
 11
53.125
 21
100
  0
LINE
  5
D9
100
AcDbEntity
  8
0
  6
ByBlock
 62
   96
370
   -2
100
AcDbLine
 10
50
 20
50
 11
50
 21
100
  0
SOLID
  5
DA
100
AcDbEntity
  8
0
  6
ByBlock
 62
   96
370
   -2
100
AcDbTrace
 10
50
 20
50
 30
0
 11
48.9592883555679
 21
56.25
 31
0
 12
51.0407116444321
 22
56.25
 32
0
 13
51.0407116444321
 23
56.25
 33
0
  0
SOLID
  5
DB
100
AcDbEntity
  8
0
  6
ByBlock
 62
   96
370
   -2
100
AcDbTrace
 10
50
 20
100
 30
0
 11
51.0407116444321
 21
93.75
 31
0
 12
48.9592883555679
 22
93.75
 32
0
 13
48.9592883555679
 23
93.75
 33
0
  0
MTEXT
  5
DC
100
AcDbEntity
  8
0
  6
CONTINUOUS
 62
    0
370
   -2
100
AcDbMText
 10
45.3125
 20
75
 30
0
 40
6.25
 41
7.638888888889277
 71
    5
 72
    1
  1
50
  7
standard
210
0
220
0
230
1
 50
90
 73
    2
 44
1
  0
ENDBLK
  5
6A
330
68
100
AcDbEntity
  8
0
100
AcDbBlockEnd
  0
BLOCK
  5
6C
330
6B
100
AcDbEntity
  8
0
100
AcDbBlockBegin
  2
*D15
 70
    1
 10
0
 20
0
  3
*D15
  1

  0
LINE
  5
DD
100
AcDbEntity
  8
0
  6
ByBlock
 62
   96
370
   -2
100
AcDbLine
 10
9.567237139237322e-017
 20
701.5625
 11
6.314376511896633e-015
 21
803.125
  0
LINE
  5
DE
100
AcDbEntity
  8
0
  6
ByBlock
 62
   96
370
   -2
100
AcDbLine
 10
800
 20
701.5625
 11
800
 21
803.125
  0
LINE
  5
DF
100
AcDbEntity
  8
0
  6
ByBlock
 62
   96
370
   -2
100
AcDbLine
 10
6.123031769111886e-015
 20
800
 11
800
 21
800
  0
SOLID
  5
E0
100
AcDbEntity
  8
0
  6
ByBlock
 62
   96
370
   -2
100
AcDbTrace
 10
6.123031769111886e-015
 20
800
 30
0
 11
6.250000000000006
 21
801.0407116444321
 31
0
 12
6.250000000000006
 22
798.9592883555679
 32
0
 13
6.250000000000006
 23
798.9592883555679
 33
0
  0
SOLID
  5
E1
100
AcDbEntity
  8
0
  6
ByBlock
 62
   96
370
   -2
100
AcDbTrace
 10
800
 20
800
 30
0
 11
793.75
 21
798.9592883555679
 31
0
 12
793.75
 22
801.0407116444321
 32
0
 13
793.75
 23
801.0407116444321
 33
0
  0
MTEXT
  5
E2
100
AcDbEntity
  8
0
  6
CONTINUOUS
 62
    0
370
   -2
100
AcDbMText
 10
400
 20
804.6875
 30
0
 40
6.25
 41
12.5
 71
    5
 72
    1
  1
800
  7
standard
210
0
220
0
230
1
 50
0
 73
    2
 44
1
  0
ENDBLK
  5
6D
330
6B
100
AcDbEntity
  8
0
100
AcDbBlockEnd
  0
BLOCK
  5
6F
330
6E
100
AcDbEntity
  8
0
100
AcDbBlockBegin
  2
*D2
 70
    1
 10
0
 20
0
  3
*D2
  1

  0
LINE
  5
E3
100
AcDbEntity
  8
0
  6
ByBlock
 62
   96
370
   -2
100
AcDbLine
 10
51.5625
 20
50
 11
53.125
 21
50
  0
LINE
  5
E4
100
AcDbEntity
  8
0
  6
ByBlock
 62
   96
370
   -2
100
AcDbLine
 10
1.5625
 20
50
 11
3.125
 21
50
  0
LINE
  5
E5
100
AcDbEntity
  8
0
  6
ByBlock
 62
   96
370
   -2
100
AcDbLine
 10
50
 20
50
 11
3.374236624099809e-031
 21
50
  0
SOLID
  5
E6
100
AcDbEntity
  8
0
  6
ByBlock
 62
   96
370
   -2
100
AcDbTrace
 10
50
 20
50
 30
0
 11
43.75
 21
48.9592883555679
 31
0
 12
43.75
 22
51.0407116444321
 32
0
 13
43.75
 23
51.0407116444321
 33
0
  0
SOLID
  5
E7
100
AcDbEntity
  8
0
  6
ByBlock
 62
   96
370
   -2
100
AcDbTrace
 10
3.374236624099809e-031
 20
50
 30
0
 11
6.25
 21
51.0407116444321
 31
0
 12
6.25
 22
48.9592883555679
 32
0
 13
6.25
 23
48.9592883555679
 33
0
  0
MTEXT
  5
E8
100
AcDbEntity
  8
0
  6
CONTINUOUS
 62
    0
370
   -2
100
AcDbMText
 10
25
 20
54.6875
 30
0
 40
6.25
 41
7.638888888889277
 71
    5
 72
    1
  1
50
  7
standard
210
0
220
0
230
1
 50
0
 73
    2
 44
1
  0
ENDBLK
  5
70
330
6E
100
AcDbEntity
  8
0
100
AcDbBlockEnd
  0
BLOCK
  5
72
330
71
100
AcDbEntity
  8
0
100
AcDbBlockBegin
  2
*D5
 70
    1
 10
0
 20
0
  3
*D5
  1

  0
LINE
  5
E9
100
AcDbEntity
  8
0
  6
ByBlock
 62
   96
370
   -2
100
AcDbLine
 10
38.4375
 20
600
 11
20.20833333333333
 21
600
  0
LINE
  5
EA
100
AcDbEntity
  8
0
  6
ByBlock
 62
   96
370
   -2
100
AcDbLine
 10
38.4375
 20
100
 11
20.20833333333333
 21
100
  0
LINE
  5
EB
100
AcDbEntity
  8
0
  6
ByBlock
 62
   96
370
   -2
100
AcDbLine
 10
23.33333333333333
 20
600
 11
23.33333333333333
 21
100
  0
SOLID
  5
EC
100
AcDbEntity
  8
0
  6
ByBlock
 62
   96
370
   -2
100
AcDbTrace
 10
23.33333333333333
 20
600
 30
0
 11
24.37404497776543
 21
593.75
 31
0
 12
22.29262168890123
 22
593.75
 32
0
 13
22.29262168890123
 23
593.75
 33
0
  0
SOLID
  5
ED
100
AcDbEntity
  8
0
  6
ByBlock
 62
   96
370
   -2
100
AcDbTrace
 10
23.33333333333333
 20
100
 30
0
 11
22.29262168890123
 21
106.25
 31
0
 12
24.37404497776543
 22
106.25
 32
0
 13
24.37404497776543
 23
106.25
 33
0
  0
MTEXT
  5
EE
100
AcDbEntity
  8
0
  6
CONTINUOUS
 62
    0
370
   -2
100
AcDbMText
 10
18.64583333333333
 20
350
 30
0
 40
6.25
 41
12.50000000000039
 71
    5
 72
    1
  1
500
  7
standard
210
0
220
0
230
1
 50
90
 73
    2
 44
1
  0
ENDBLK
  5
73
330
71
100
AcDbEntity
  8
0
100
AcDbBlockEnd
  0
BLOCK
  5
75
330
74
100
AcDbEntity
  8
0
100
AcDbBlockBegin
  2
*D28
 70
    1
 10
0
 20
0
  3
*D28
  1

  0
LINE
  5
EF
100
AcDbEntity
  8
0
  6
ByBlock
 62
   96
370
   -2
100
AcDbLine
 10
351.5625
 20
380
 11
353.125
 21
380
  0
LINE
  5
F0
100
AcDbEntity
  8
0
  6
ByBlock
 62
   96
370
   -2
100
AcDbLine
 10
451.5625
 20
380
 11
453.125
 21
380
  0
LINE
  5
F1
100
AcDbEntity
  8
0
  6
ByBlock
 62
   96
370
   -2
100
AcDbLine
 10
350
 20
380
 11
450
 21
380
  0
SOLID
  5
F2
100
AcDbEntity
  8
0
  6
ByBlock
 62
   96
370
   -2
100
AcDbTrace
 10
350
 20
380
 30
0
 11
356.25
 21
381.0407116444321
 31
0
 12
356.25
 22
378.9592883555679
 32
0
 13
356.25
 23
378.9592883555679
 33
0
  0
SOLID
  5
F3
100
AcDbEntity
  8
0
  6
ByBlock
 62
   96
370
   -2
100
AcDbTrace
 10
450
 20
380
 30
0
 11
443.75
 21
378.9592883555679
 31
0
 12
443.75
 22
381.0407116444321
 32
0
 13
443.75
 23
381.0407116444321
 33
0
  0
MTEXT
  5
F4
100
AcDbEntity
  8
0
  6
CONTINUOUS
 62
    0
370
   -2
100
AcDbMText
 10
400
 20
384.6875
 30
0
 40
6.25
 41
11.11111111111111
 71
    5
 72
    1
  1
100
  7
standard
210
0
220
0
230
1
 50
0
 73
    2
 44
1
  0
ENDBLK
  5
76
330
74
100
AcDbEntity
  8
0
100
AcDbBlockEnd
  0
BLOCK
  5
78
330
77
100
AcDbEntity
  8
0
100
AcDbBlockBegin
  2
*D6
 70
    1
 10
0
 20
0
  3
*D6
  1

  0
LINE
  5
F5
100
AcDbEntity
  8
0
  6
ByBlock
 62
   96
370
   -2
100
AcDbLine
 10
801.5625
 20
700
 11
978.125
 21
700
  0
LINE
  5
F6
100
AcDbEntity
  8
0
  6
ByBlock
 62
   96
370
   -2
100
AcDbLine
 10
801.5625
 20
-3.826894855694929e-016
 11
978.125
 21
-4.362660135492219e-014
  0
LINE
  5
F7
100
AcDbEntity
  8
0
  6
ByBlock
 62
   96
370
   -2
100
AcDbLine
 10
975
 20
700
 11
975
 21
-4.28612223837832e-014
  0
SOLID
  5
F8
100
AcDbEntity
  8
0
  6
ByBlock
 62
   96
370
   -2
100
AcDbTrace
 10
975
 20
700
 30
0
 11
976.0407116444321
 21
693.75
 31
0
 12
973.9592883555679
 22
693.75
 32
0
 13
973.9592883555679
 23
693.75
 33
0
  0
SOLID
  5
F9
100
AcDbEntity
  8
0
  6
ByBlock
 62
   96
370
   -2
100
AcDbTrace
 10
975
 20
-4.28612223837832e-014
 30
0
 11
973.9592883555679
 21
6.249999999999957
 31
0
 12
976.0407116444321
 22
6.249999999999957
 32
0
 13
976.0407116444321
 23
6.249999999999957
 33
0
  0
MTEXT
  5
FA
100
AcDbEntity
  8
0
  6
CONTINUOUS
 62
    0
370
   -2
100
AcDbMText
 10
970.3125
 20
350
 30
0
 40
6.25
 41
12.5
 71
    5
 72
    1
  1
700
  7
standard
210
0
220
0
230
1
 50
90
 73
    2
 44
1
  0
ENDBLK
  5
79
330
77
100
AcDbEntity
  8
0
100
AcDbBlockEnd
  0
BLOCK
  5
7B
330
7A
100
AcDbEntity
  8
0
100
AcDbBlockBegin
  2
*D22
 70
    1
 10
0
 20
0
  3
*D22
  1

  0
LINE
  5
FB
100
AcDbEntity
  8
0
  6
ByBlock
 62
   96
370
   -2
100
AcDbLine
 10
716.5625
 20
615
 11
718.125
 21
615
  0
LINE
  5
FC
100
AcDbEntity
  8
0
  6
ByBlock
 62
   96
370
   -2
100
AcDbLine
 10
716.5625
 20
700
 11
718.125
 21
700
  0
LINE
  5
FD
100
AcDbEntity
  8
0
  6
ByBlock
 62
   96
370
   -2
100
AcDbLine
 10
715
 20
615
 11
715
 21
700
  0
SOLID
  5
FE
100
AcDbEntity
  8
0
  6
ByBlock
 62
   96
370
   -2
100
AcDbTrace
 10
715
 20
615
 30
0
 11
713.9592883555679
 21
621.25
 31
0
 12
716.0407116444321
 22
621.25
 32
0
 13
716.0407116444321
 23
621.25
 33
0
  0
SOLID
  5
FF
100
AcDbEntity
  8
0
  6
ByBlock
 62
   96
370
   -2
100
AcDbTrace
 10
715
 20
700
 30
0
 11
716.0407116444321
 21
693.75
 31
0
 12
713.9592883555679
 22
693.75
 32
0
 13
713.9592883555679
 23
693.75
 33
0
  0
MTEXT
  5
100
100
AcDbEntity
  8
0
  6
CONTINUOUS
 62
    0
370
   -2
100
AcDbMText
 10
710.3125
 20
657.5
 30
0
 40
6.25
 41
7.638888888889277
 71
    5
 72
    1
  1
85
  7
standard
210
0
220
0
230
1
 50
90
 73
    2
 44
1
  0
ENDBLK
  5
7C
330
7A
100
AcDbEntity
  8
0
100
AcDbBlockEnd
  0
BLOCK
  5
7E
330
7D
100
AcDbEntity
  8
0
100
AcDbBlockBegin
  2
*D8
 70
    1
 10
0
 20
0
  3
*D8
  1

  0
LINE
  5
101
100
AcDbEntity
  8
0
  6
ByBlock
 62
   96
370
   -2
100
AcDbLine
 10
751.5625
 20
650
 11
753.125
 21
650
  0
LINE
  5
102
100
AcDbEntity
  8
0
  6
ByBlock
 62
   96
370
   -2
100
AcDbLine
 10
751.5625
 20
700
 11
753.125
 21
700
  0
LINE
  5
103
100
AcDbEntity
  8
0
  6
ByBlock
 62
   96
370
   -2
100
AcDbLine
 10
750
 20
650
 11
750
 21
700
  0
SOLID
  5
104
100
AcDbEntity
  8
0
  6
ByBlock
 62
   96
370
   -2
100
AcDbTrace
 10
750
 20
650
 30
0
 11
748.9592883555679
 21
656.25
 31
0
 12
751.0407116444321
 22
656.25
 32
0
 13
751.0407116444321
 23
656.25
 33
0
  0
SOLID
  5
105
100
AcDbEntity
  8
0
  6
ByBlock
 62
   96
370
   -2
100
AcDbTrace
 10
750
 20
700
 30
0
 11
751.0407116444321
 21
693.75
 31
0
 12
748.9592883555679
 22
693.75
 32
0
 13
748.9592883555679
 23
693.75
 33
0
  0
MTEXT
  5
106
100
AcDbEntity
  8
0
  6
CONTINUOUS
 62
    0
370
   -2
100
AcDbMText
 10
745.3125
 20
675
 30
0
 40
6.25
 41
7.638888888889277
 71
    5
 72
    1
  1
50
  7
standard
210
0
220
0
230
1
 50
90
 73
    2
 44
1
  0
ENDBLK
  5
7F
330
7D
100
AcDbEntity
  8
0
100
AcDbBlockEnd
  0
BLOCK
  5
81
330
80
100
AcDbEntity
  8
0
100
AcDbBlockBegin
  2
*D9
 70
    1
 10
0
 20
0
  3
*D9
  1

  0
LINE
  5
107
100
AcDbEntity
  8
0
  6
ByBlock
 62
   96
370
   -2
100
AcDbLine
 10
51.5625
 20
650
 11
53.125
 21
650
  0
LINE
  5
108
100
AcDbEntity
  8
0
  6
ByBlock
 62
   96
370
   -2
100
AcDbLine
 10
51.5625
 20
700
 11
53.125
 21
700
  0
LINE
  5
109
100
AcDbEntity
  8
0
  6
ByBlock
 62
   96
370
   -2
100
AcDbLine
 10
50
 20
650
 11
50
 21
700
  0
SOLID
  5
10A
100
AcDbEntity
  8
0
  6
ByBlock
 62
   96
370
   -2
100
AcDbTrace
 10
50
 20
650
 30
0
 11
48.9592883555679
 21
656.25
 31
0
 12
51.0407116444321
 22
656.25
 32
0
 13
51.0407116444321
 23
656.25
 33
0
  0
SOLID
  5
10B
100
AcDbEntity
  8
0
  6
ByBlock
 62
   96
370
   -2
100
AcDbTrace
 10
50
 20
700
 30
0
 11
51.0407116444321
 21
693.75
 31
0
 12
48.9592883555679
 22
693.75
 32
0
 13
48.9592883555679
 23
693.75
 33
0
  0
MTEXT
  5
10C
100
AcDbEntity
  8
0
  6
CONTINUOUS
 62
    0
370
   -2
100
AcDbMText
 10
45.3125
 20
675
 30
0
 40
6.25
 41
7.638888888889277
 71
    5
 72
    1
  1
50
  7
standard
210
0
220
0
230
1
 50
90
 73
    2
 44
1
  0
ENDBLK
  5
82
330
80
100
AcDbEntity
  8
0
100
AcDbBlockEnd
  0
BLOCK
  5
84
330
83
100
AcDbEntity
  8
0
100
AcDbBlockBegin
  2
*D1
 70
    1
 10
0
 20
0
  3
*D1
  1

  0
LINE
  5
10D
100
AcDbEntity
  8
0
  6
ByBlock
 62
   96
370
   -2
100
AcDbLine
 10
51.5625
 20
50
 11
53.125
 21
50
  0
LINE
  5
10E
100
AcDbEntity
  8
0
  6
ByBlock
 62
   96
370
   -2
100
AcDbLine
 10
51.5625
 20
0
 11
53.125
 21
0
  0
LINE
  5
10F
100
AcDbEntity
  8
0
  6
ByBlock
 62
   96
370
   -2
100
AcDbLine
 10
50
 20
50
 11
50
 21
0
  0
SOLID
  5
110
100
AcDbEntity
  8
0
  6
ByBlock
 62
   96
370
   -2
100
AcDbTrace
 10
50
 20
50
 30
0
 11
51.0407116444321
 21
43.75
 31
0
 12
48.9592883555679
 22
43.75
 32
0
 13
48.9592883555679
 23
43.75
 33
0
  0
SOLID
  5
111
100
AcDbEntity
  8
0
  6
ByBlock
 62
   96
370
   -2
100
AcDbTrace
 10
50
 20
0
 30
0
 11
48.9592883555679
 21
6.25
 31
0
 12
51.0407116444321
 22
6.25
 32
0
 13
51.0407116444321
 23
6.25
 33
0
  0
MTEXT
  5
112
100
AcDbEntity
  8
0
  6
CONTINUOUS
 62
    0
370
   -2
100
AcDbMText
 10
45.3125
 20
25
 30
0
 40
6.25
 41
7.638888888889277
 71
    5
 72
    1
  1
50
  7
standard
210
0
220
0
230
1
 50
90
 73
    2
 44
1
  0
ENDBLK
  5
85
330
83
100
AcDbEntity
  8
0
100
AcDbBlockEnd
  0
BLOCK
  5
87
330
86
100
AcDbEntity
  8
0
100
AcDbBlockBegin
  2
*D25
 70
    1
 10
0
 20
0
  3
*D25
  1

  0
LINE
  5
113
100
AcDbEntity
  8
0
  6
ByBlock
 62
   96
370
   -2
100
AcDbLine
 10
348.4375
 20
480
 11
336.875
 21
480
  0
LINE
  5
114
100
AcDbEntity
  8
0
  6
ByBlock
 62
   96
370
   -2
100
AcDbLine
 10
348.4375
 20
700
 11
336.875
 21
700
  0
LINE
  5
115
100
AcDbEntity
  8
0
  6
ByBlock
 62
   96
370
   -2
100
AcDbLine
 10
340
 20
480
 11
340
 21
700
  0
SOLID
  5
116
100
AcDbEntity
  8
0
  6
ByBlock
 62
   96
370
   -2
100
AcDbTrace
 10
340
 20
480
 30
0
 11
338.9592883555679
 21
486.25
 31
0
 12
341.0407116444321
 22
486.25
 32
0
 13
341.0407116444321
 23
486.25
 33
0
  0
SOLID
  5
117
100
AcDbEntity
  8
0
  6
ByBlock
 62
   96
370
   -2
100
AcDbTrace
 10
340
 20
700
 30
0
 11
341.0407116444321
 21
693.75
 31
0
 12
338.9592883555679
 22
693.75
 32
0
 13
338.9592883555679
 23
693.75
 33
0
  0
MTEXT
  5
118
100
AcDbEntity
  8
0
  6
CONTINUOUS
 62
    0
370
   -2
100
AcDbMText
 10
335.3125
 20
590
 30
0
 40
6.25
 41
12.5
 71
    5
 72
    1
  1
220
  7
standard
210
0
220
0
230
1
 50
90
 73
    2
 44
1
  0
ENDBLK
  5
88
330
86
100
AcDbEntity
  8
0
100
AcDbBlockEnd
  0
BLOCK
  5
8A
330
89
100
AcDbEntity
  8
0
100
AcDbBlockBegin
  2
*D14
 70
    1
 10
0
 20
0
  3
*D14
  1

  0
SOLID
  5
119
100
AcDbEntity
  8
0
  6
ByBlock
 62
   96
370
   -2
100
AcDbTrace
 10
52.68328157299975
 20
48.65835921350013
 30
0
 11
58.73887191313438
 21
46.79411503439569
 31
0
 12
57.80803112036408
 22
44.93243344885509
 32
0
 13
57.80803112036408
 23
44.93243344885509
 33
0
  0
LINE
  5
11A
100
AcDbEntity
  8
0
  6
ByBlock
 62
   96
370
   -2
100
AcDbLine
 10
50
 20
50
 11
66.34814143549882
 21
41.82592928225061
  0
MTEXT
  5
11B
100
AcDbEntity
  8
0
  6
CONTINUOUS
 62
    0
370
   -2
100
AcDbMText
 10
61.61202523315533
 20
49.43477170568747
 30
0
 40
6.25
 41
2.777777777778165
 71
    5
 72
    1
  1
3
  7
standard
210
0
220
0
230
1
 50
333.4349488229221
 73
    2
 44
1
  0
ENDBLK
  5
8B
330
89
100
AcDbEntity
  8
0
100
AcDbBlockEnd
  0
BLOCK
  5
8D
330
8C
100
AcDbEntity
  8
0
100
AcDbBlockBegin
  2
*D29
 70
    1
 10
0
 20
0
  3
*D29
  1

  0
LINE
  5
11C
100
AcDbEntity
  8
0
  6
ByBlock
 62
   96
370
   -2
100
AcDbLine
 10
351.5625
 20
380
 11
353.125
 21
380
  0
LINE
  5
11D
100
AcDbEntity
  8
0
  6
ByBlock
 62
   96
370
   -2
100
AcDbLine
 10
351.5625
 20
480
 11
353.125
 21
480
  0
LINE
  5
11E
100
AcDbEntity
  8
0
  6
ByBlock
 62
   96
370
   -2
100
AcDbLine
 10
350
 20
380
 11
350
 21
480
  0
SOLID
  5
11F
100
AcDbEntity
  8
0
  6
ByBlock
 62
   96
370
   -2
100
AcDbTrace
 10
350
 20
380
 30
0
 11
348.9592883555679
 21
386.25
 31
0
 12
351.0407116444321
 22
386.25
 32
0
 13
351.0407116444321
 23
386.25
 33
0
  0
SOLID
  5
120
100
AcDbEntity
  8
0
  6
ByBlock
 62
   96
370
   -2
100
AcDbTrace
 10
350
 20
480
 30
0
 11
351.0407116444321
 21
473.75
 31
0
 12
348.9592883555679
 22
473.75
 32
0
 13
348.9592883555679
 23
473.75
 33
0
  0
MTEXT
  5
121
100
AcDbEntity
  8
0
  6
CONTINUOUS
 62
    0
370
   -2
100
AcDbMText
 10
345.3125
 20
430
 30
0
 40
6.25
 41
11.11111111111111
 71
    5
 72
    1
  1
100
  7
standard
210
0
220
0
230
1
 50
90
 73
    2
 44
1
  0
ENDBLK
  5
8E
330
8C
100
AcDbEntity
  8
0
100
AcDbBlockEnd
  0
BLOCK
  5
90
330
8F
100
AcDbEntity
  8
0
100
AcDbBlockBegin
  2
*D13
 70
    1
 10
0
 20
0
  3
*D13
  1

  0
SOLID
  5
122
100
AcDbEntity
  8
0
  6
ByBlock
 62
   96
370
   -2
100
AcDbTrace
 10
747.2425649099458
 20
48.8182421042625
 30
0
 11
741.9078648733308
 21
45.39968155248103
 31
0
 12
741.0879520713351
 22
47.3128114238044
 32
0
 13
741.0879520713351
 23
47.3128114238044
 33
0
  0
LINE
  5
123
100
AcDbEntity
  8
0
  6
ByBlock
 62
   96
370
   -2
100
AcDbLine
 10
750
 20
50
 11
733.2000713957807
 21
42.80003059819176
  0
MTEXT
  5
124
100
AcDbEntity
  8
0
  6
CONTINUOUS
 62
    0
370
   -2
100
AcDbMText
 10
738.3748214407733
 20
50.11762867943676
 30
0
 40
6.25
 41
2.777777777778165
 71
    5
 72
    1
  1
3
  7
standard
210
0
220
0
230
1
 50
23.19859051364809
 73
    2
 44
1
  0
ENDBLK
  5
91
330
8F
100
AcDbEntity
  8
0
100
AcDbBlockEnd
  0
BLOCK
  5
93
330
92
100
AcDbEntity
  8
0
100
AcDbBlockBegin
  2
*D24
 70
    1
 10
0
 20
0
  3
*D24
  1

  0
LINE
  5
125
100
AcDbEntity
  8
0
  6
ByBlock
 62
   96
370
   -2
100
AcDbLine
 10
350
 20
478.4375
 11
350
 21
466.875
  0
LINE
  5
126
100
AcDbEntity
  8
0
  6
ByBlock
 62
   96
370
   -2
100
AcDbLine
 10
-2.870171141771197e-016
 20
478.4375
 11
-2.410943759087805e-015
 21
466.875
  0
LINE
  5
127
100
AcDbEntity
  8
0
  6
ByBlock
 62
   96
370
   -2
100
AcDbLine
 10
350
 20
470
 11
-1.836909530733566e-015
 21
470
  0
SOLID
  5
128
100
AcDbEntity
  8
0
  6
ByBlock
 62
   96
370
   -2
100
AcDbTrace
 10
350
 20
470
 30
0
 11
343.75
 21
468.9592883555679
 31
0
 12
343.75
 22
471.0407116444321
 32
0
 13
343.75
 23
471.0407116444321
 33
0
  0
SOLID
  5
129
100
AcDbEntity
  8
0
  6
ByBlock
 62
   96
370
   -2
100
AcDbTrace
 10
-1.836909530733566e-015
 20
470
 30
0
 11
6.249999999999998
 21
471.0407116444321
 31
0
 12
6.249999999999998
 22
468.9592883555679
 32
0
 13
6.249999999999998
 23
468.9592883555679
 33
0
  0
MTEXT
  5
12A
100
AcDbEntity
  8
0
  6
CONTINUOUS
 62
    0
370
   -2
100
AcDbMText
 10
175
 20
474.6875
 30
0
 40
6.25
 41
12.50000000000077
 71
    5
 72
    1
  1
350
  7
standard
210
0
220
0
230
1
 50
0
 73
    2
 44
1
  0
ENDBLK
  5
94
330
92
100
AcDbEntity
  8
0
100
AcDbBlockEnd
  0
BLOCK
  5
96
330
95
100
AcDbEntity
  8
0
100
AcDbBlockBegin
  2
*D7
 70
    1
 10
0
 20
0
  3
*D7
  1

  0
LINE
  5
12B
100
AcDbEntity
  8
0
  6
ByBlock
 62
   96
370
   -2
100
AcDbLine
 10
751.5625
 20
650
 11
753.125
 21
650
  0
LINE
  5
12C
100
AcDbEntity
  8
0
  6
ByBlock
 62
   96
370
   -2
100
AcDbLine
 10
801.5625
 20
650
 11
803.125
 21
650
  0
LINE
  5
12D
100
AcDbEntity
  8
0
  6
ByBlock
 62
   96
370
   -2
100
AcDbLine
 10
750
 20
650
 11
800
 21
650
  0
SOLID
  5
12E
100
AcDbEntity
  8
0
  6
ByBlock
 62
   96
370
   -2
100
AcDbTrace
 10
750
 20
650
 30
0
 11
756.25
 21
651.0407116444321
 31
0
 12
756.25
 22
648.9592883555679
 32
0
 13
756.25
 23
648.9592883555679
 33
0
  0
SOLID
  5
12F
100
AcDbEntity
  8
0
  6
ByBlock
 62
   96
370
   -2
100
AcDbTrace
 10
800
 20
650
 30
0
 11
793.75
 21
648.9592883555679
 31
0
 12
793.75
 22
651.0407116444321
 32
0
 13
793.75
 23
651.0407116444321
 33
0
  0
MTEXT
  5
130
100
AcDbEntity
  8
0
  6
CONTINUOUS
 62
    0
370
   -2
100
AcDbMText
 10
775
 20
654.6875
 30
0
 40
6.25
 41
7.638888888889277
 71
    5
 72
    1
  1
50
  7
standard
210
0
220
0
230
1
 50
0
 73
    2
 44
1
  0
ENDBLK
  5
97
330
95
100
AcDbEntity
  8
0
100
AcDbBlockEnd
  0
BLOCK
  5
99
330
98
100
AcDbEntity
  8
0
100
AcDbBlockBegin
  2
*D18
 70
    1
 10
0
 20
0
  3
*D18
  1

  0
LINE
  5
131
100
AcDbEntity
  8
0
  6
ByBlock
 62
   96
370
   -2
100
AcDbLine
 10
740
 20
98.4375
 11
740
 21
86.875
  0
LINE
  5
132
100
AcDbEntity
  8
0
  6
ByBlock
 62
   96
370
   -2
100
AcDbLine
 10
760
 20
98.4375
 11
760
 21
86.875
  0
LINE
  5
133
100
AcDbEntity
  8
0
  6
ByBlock
 62
   96
370
   -2
100
AcDbLine
 10
740
 20
90
 11
760
 21
90
  0
SOLID
  5
134
100
AcDbEntity
  8
0
  6
ByBlock
 62
   96
370
   -2
100
AcDbTrace
 10
740
 20
90
 30
0
 11
746.25
 21
91.04071164443211
 31
0
 12
746.25
 22
88.95928835556789
 32
0
 13
746.25
 23
88.95928835556789
 33
0
  0
SOLID
  5
135
100
AcDbEntity
  8
0
  6
ByBlock
 62
   96
370
   -2
100
AcDbTrace
 10
760
 20
90
 30
0
 11
753.75
 21
88.95928835556789
 31
0
 12
753.75
 22
91.04071164443211
 32
0
 13
753.75
 23
91.04071164443211
 33
0
  0
MTEXT
  5
136
100
AcDbEntity
  8
0
  6
CONTINUOUS
 62
    0
370
   -2
100
AcDbMText
 10
750
 20
94.6875
 30
0
 40
6.25
 41
7.638888888888888
 71
    5
 72
    1
  1
20
  7
standard
210
0
220
0
230
1
 50
0
 73
    2
 44
1
  0
ENDBLK
  5
9A
330
98
100
AcDbEntity
  8
0
100
AcDbBlockEnd
  0
BLOCK
  5
9C
330
9B
100
AcDbEntity
  8
0
100
AcDbBlockBegin
  2
*D12
 70
    1
 10
0
 20
0
  3
*D12
  1

  0
SOLID
  5
137
100
AcDbEntity
  8
0
  6
ByBlock
 62
   96
370
   -2
100
AcDbTrace
 10
747.1539501058485
 20
650.9486832980505
 30
0
 11
740.8955775746463
 21
651.9378010804962
 31
0
 12
741.5537814114192
 22
653.9124125908151
 32
0
 13
741.5537814114192
 23
653.9124125908151
 33
0
  0
LINE
  5
138
100
AcDbEntity
  8
0
  6
ByBlock
 62
   96
370
   -2
100
AcDbLine
 10
750
 20
650
 11
732.660177496743
 21
655.7799408344188
  0
MTEXT
  5
139
100
AcDbEntity
  8
0
  6
CONTINUOUS
 62
    0
370
   -2
100
AcDbMText
 10
741.3893814544996
 20
657.8112650258465
 30
0
 40
6.25
 41
2.777777777778165
 71
    5
 72
    1
  1
3
  7
standard
210
0
220
0
230
1
 50
341.5650511770787
 73
    2
 44
1
  0
ENDBLK
  5
9D
330
9B
100
AcDbEntity
  8
0
100
AcDbBlockEnd
  0
BLOCK
  5
9F
330
9E
100
AcDbEntity
  8
0
100
AcDbBlockBegin
  2
*D27
 70
    1
 10
0
 20
0
  3
*D27
  1

  0
LINE
  5
13A
100
AcDbEntity
  8
0
  6
ByBlock
 62
   96
370
   -2
100
AcDbLine
 10
451.5625
 20
480
 11
453.125
 21
480
  0
LINE
  5
13B
100
AcDbEntity
  8
0
  6
ByBlock
 62
   96
370
   -2
100
AcDbLine
 10
451.5625
 20
380
 11
453.125
 21
380
  0
LINE
  5
13C
100
AcDbEntity
  8
0
  6
ByBlock
 62
   96
370
   -2
100
AcDbLine
 10
450
 20
480
 11
450
 21
380
  0
SOLID
  5
13D
100
AcDbEntity
  8
0
  6
ByBlock
 62
   96
370
   -2
100
AcDbTrace
 10
450
 20
480
 30
0
 11
451.0407116444321
 21
473.75
 31
0
 12
448.9592883555679
 22
473.75
 32
0
 13
448.9592883555679
 23
473.75
 33
0
  0
SOLID
  5
13E
100
AcDbEntity
  8
0
  6
ByBlock
 62
   96
370
   -2
100
AcDbTrace
 10
450
 20
380
 30
0
 11
448.9592883555679
 21
386.25
 31
0
 12
451.0407116444321
 22
386.25
 32
0
 13
451.0407116444321
 23
386.25
 33
0
  0
MTEXT
  5
13F
100
AcDbEntity
  8
0
  6
CONTINUOUS
 62
    0
370
   -2
100
AcDbMText
 10
445.3125
 20
430
 30
0
 40
6.25
 41
11.11111111111111
 71
    5
 72
    1
  1
100
  7
standard
210
0
220
0
230
1
 50
90
 73
    2
 44
1
  0
ENDBLK
  5
A0
330
9E
100
AcDbEntity
  8
0
100
AcDbBlockEnd
  0
BLOCK
  5
A2
330
A1
100
AcDbEntity
  8
0
100
AcDbBlockBegin
  2
*D26
 70
    1
 10
0
 20
0
  3
*D26
  1

  0
LINE
  5
140
100
AcDbEntity
  8
0
  6
ByBlock
 62
   96
370
   -2
100
AcDbLine
 10
351.5625
 20
480
 11
353.125
 21
480
  0
LINE
  5
141
100
AcDbEntity
  8
0
  6
ByBlock
 62
   96
370
   -2
100
AcDbLine
 10
451.5625
 20
480
 11
453.125
 21
480
  0
LINE
  5
142
100
AcDbEntity
  8
0
  6
ByBlock
 62
   96
370
   -2
100
AcDbLine
 10
350
 20
480
 11
450
 21
480
  0
SOLID
  5
143
100
AcDbEntity
  8
0
  6
ByBlock
 62
   96
370
   -2
100
AcDbTrace
 10
350
 20
480
 30
0
 11
356.25
 21
481.0407116444321
 31
0
 12
356.25
 22
478.9592883555679
 32
0
 13
356.25
 23
478.9592883555679
 33
0
  0
SOLID
  5
144
100
AcDbEntity
  8
0
  6
ByBlock
 62
   96
370
   -2
100
AcDbTrace
 10
450
 20
480
 30
0
 11
443.75
 21
478.9592883555679
 31
0
 12
443.75
 22
481.0407116444321
 32
0
 13
443.75
 23
481.0407116444321
 33
0
  0
MTEXT
  5
145
100
AcDbEntity
  8
0
  6
CONTINUOUS
 62
    0
370
   -2
100
AcDbMText
 10
400
 20
484.6875
 30
0
 40
6.25
 41
11.11111111111111
 71
    5
 72
    1
  1
100
  7
standard
210
0
220
0
230
1
 50
0
 73
    2
 44
1
  0
ENDBLK
  5
A3
330
A1
100
AcDbEntity
  8
0
100
AcDbBlockEnd
  0
ENDSEC
  0
SECTION
  2
ENTITIES
  0
CIRCLE
  5
146
100
AcDbEntity
  8
0
  6
ByLayer
 62
  256
370
   -1
100
AcDbCircle
 10
50
 20
50
 40
3
  0
CIRCLE
  5
147
100
AcDbEntity
  8
0
  6
ByLayer
 62
  256
370
   -1
100
AcDbCircle
 10
750
 20
50
 40
3
  0
DIMENSION
  5
148
100
AcDbEntity
  8
0
  6
ByLayer
 62
  256
370
   -1
100
AcDbDimension
  2
*D1
 10
50
 20
0
 30
0
 11
45.3125
 21
25
 31
0
 70
   33
 71
    5
  3
Standard
 53
0
210
0
220
0
230
1
100
AcDbAlignedDimension
 13
50
 23
50
 33
0
 14
50
 24
0
 34
0
  0
DIMENSION
  5
149
100
AcDbEntity
  8
0
  6
ByLayer
 62
  256
370
   -1
100
AcDbDimension
  2
*D2
 10
3.374236624099809e-031
 20
50
 30
0
 11
25
 21
54.6875
 31
0
 70
   33
 71
    5
  3
Standard
 53
0
210
0
220
0
230
1
100
AcDbAlignedDimension
 13
50
 23
50
 33
0
 14
0
 24
50
 34
0
  0
DIMENSION
  5
14A
100
AcDbEntity
  8
0
  6
ByLayer
 62
  256
370
   -1
100
AcDbDimension
  2
*D3
 10
800
 20
50
 30
0
 11
775
 21
54.6875
 31
0
 70
   33
 71
    5
  3
Standard
 53
0
210
0
220
0
230
1
100
AcDbAlignedDimension
 13
750
 23
50
 33
0
 14
800
 24
50
 34
0
  0
DIMENSION
  5
14B
100
AcDbEntity
  8
0
  6
ByLayer
 62
  256
370
   -1
100
AcDbDimension
  2
*D4
 10
750
 20
5.99864288728855e-031
 30
0
 11
745.3125
 21
25
 31
0
 70
   33
 71
    5
  3
Standard
 53
0
210
0
220
0
230
1
100
AcDbAlignedDimension
 13
750
 23
50
 33
0
 14
750
 24
0
 34
0
  0
LWPOLYLINE
  5
14C
100
AcDbEntity
  8
0
  6
ByLayer
 62
  256
370
   -1
100
AcDbPolyline
 90
    4
 70
    1
 43
0
 10
740
 20
600
 10
760
 20
600
 10
760
 20
100
 10
740
 20
100
  0
DIMENSION
  5
14D
100
AcDbEntity
  8
0
  6
ByLayer
 62
  256
370
   -1
100
AcDbDimension
  2
*D5
 10
23.33333333333333
 20
100
 30
0
 11
18.64583333333333
 21
350
 31
0
 70
   33
 71
    5
  3
Standard
 53
0
210
0
220
0
230
1
100
AcDbAlignedDimension
 13
40
 23
600
 33
0
 14
40
 24
100
 34
0
  0
LWPOLYLINE
  5
14E
100
AcDbEntity
  8
0
  6
ByLayer
 62
  256
370
   -1
100
AcDbPolyline
 90
    4
 70
    1
 43
0
 10
40
 20
600
 10
60
 20
600
 10
60
 20
100
 10
40
 20
100
  0
LWPOLYLINE
  5
14F
100
AcDbEntity
  8
0
  6
ByLayer
 62
  256
370
   -1
100
AcDbPolyline
 90
    4
 70
    1
 43
0
 10
5.551115123125783e-017
 20
-2.220446049250313e-016
 10
800
 20
-2.220446049250313e-016
 10
800
 20
700
 10
0
 20
700
  0
DIMENSION
  5
150
100
AcDbEntity
  8
0
  6
ByLayer
 62
  256
370
   -1
100
AcDbDimension
  2
*D6
 10
975
 20
-4.28612223837832e-014
 30
0
 11
970.3125
 21
350
 31
0
 70
   33
 71
    5
  3
Standard
 53
0
210
0
220
0
230
1
100
AcDbAlignedDimension
 13
800
 23
700
 33
0
 14
800
 24
0
 34
0
  0
DIMENSION
  5
151
100
AcDbEntity
  8
0
  6
ByLayer
 62
  256
370
   -1
100
AcDbDimension
  2
*D7
 10
800
 20
650
 30
0
 11
775
 21
654.6875
 31
0
 70
   33
 71
    5
 72
    0
  3
Standard
 53
0
210
0
220
0
230
1
100
AcDbAlignedDimension
 13
750
 23
650
 33
0
 14
800
 24
650
 34
0
  0
DIMENSION
  5
152
100
AcDbEntity
  8
0
  6
ByLayer
 62
  256
370
   -1
100
AcDbDimension
  2
*D8
 10
750
 20
700
 30
0
 11
745.3125
 21
675
 31
0
 70
   33
 71
    5
 72
    0
  3
Standard
 53
0
210
0
220
0
230
1
100
AcDbAlignedDimension
 13
750
 23
650
 33
0
 14
750
 24
700
 34
0
  0
CIRCLE
  5
153
100
AcDbEntity
  8
0
  6
ByLayer
 62
  256
370
   -1
100
AcDbCircle
 10
750
 20
650
 40
3
  0
CIRCLE
  5
154
100
AcDbEntity
  8
0
  6
ByLayer
 62
  256
370
   -1
100
AcDbCircle
 10
50
 20
650
 40
3
  0
DIMENSION
  5
155
100
AcDbEntity
  8
0
  6
ByLayer
 62
  256
370
   -1
100
AcDbDimension
  2
*D9
 10
50
 20
700
 30
0
 11
45.3125
 21
675
 31
0
 70
   33
 71
    5
 72
    0
  3
Standard
 53
0
210
0
220
0
230
1
100
AcDbAlignedDimension
 13
50
 23
650
 33
0
 14
50
 24
700
 34
0
  0
DIMENSION
  5
156
100
AcDbEntity
  8
0
  6
ByLayer
 62
  256
370
   -1
100
AcDbDimension
  2
*D10
 10
6.748473248199618e-031
 20
650
 30
0
 11
25
 21
654.6875
 31
0
 70
   33
 71
    5
 72
    0
  3
Standard
 53
0
210
0
220
0
230
1
100
AcDbAlignedDimension
 13
50
 23
650
 33
0
 14
0
 24
650
 34
0
  0
DIMENSION
  5
157
100
AcDbEntity
  8
0
  6
ByLayer
 62
  256
370
   -1
100
AcDbDimension
  2
*D11
 10
50
 20
650
 30
0
 11
57.41939777534327
 21
658.9504832099367
 31
0
 70
   36
 71
    5
 72
    0
  3
Standard
 53
0
210
0
220
0
230
1
100
AcDbRadialDimension
 15
52.68328157299975
 25
651.3416407864999
 35
0
 40
0
  0
DIMENSION
  5
158
100
AcDbEntity
  8
0
  6
ByLayer
 62
  256
370
   -1
100
AcDbDimension
  2
*D12
 10
750
 20
650
 30
0
 11
741.3893814544996
 21
657.8112650258465
 31
0
 70
   36
 71
    5
 72
    0
  3
Standard
 53
0
210
0
220
0
230
1
100
AcDbRadialDimension
 15
747.1539501058485
 25
650.9486832980505
 35
0
 40
0
  0
DIMENSION
  5
159
100
AcDbEntity
  8
0
  6
ByLayer
 62
  256
370
   -1
100
AcDbDimension
  2
*D13
 10
750
 20
50
 30
0
 11
738.3748214407733
 21
50.11762867943676
 31
0
 70
   36
 71
    5
 72
    0
  3
Standard
 53
0
210
0
220
0
230
1
100
AcDbRadialDimension
 15
747.2425649099458
 25
48.8182421042625
 35
0
 40
0
  0
DIMENSION
  5
15A
100
AcDbEntity
  8
0
  6
ByLayer
 62
  256
370
   -1
100
AcDbDimension
  2
*D14
 10
50
 20
50
 30
0
 11
61.61202523315533
 21
49.43477170568747
 31
0
 70
   36
 71
    5
 72
    0
  3
Standard
 53
0
210
0
220
0
230
1
100
AcDbRadialDimension
 15
52.68328157299975
 25
48.65835921350013
 35
0
 40
0
  0
DIMENSION
  5
15B
100
AcDbEntity
  8
0
  6
ByLayer
 62
  256
370
   -1
100
AcDbDimension
  2
*D15
 10
800
 20
800
 30
0
 11
400
 21
804.6875
 31
0
 70
   33
 71
    5
 72
    0
  3
Standard
 53
0
210
0
220
0
230
1
100
AcDbAlignedDimension
 13
0
 23
700
 33
0
 14
800
 24
700
 34
0
  0
DIMENSION
  5
15C
100
AcDbEntity
  8
0
  6
ByLayer
 62
  256
370
   -1
100
AcDbDimension
  2
*D16
 10
50
 20
600
 30
0
 11
45.3125
 21
625
 31
0
 70
   33
 71
    5
 72
    0
  3
Standard
 53
0
210
0
220
0
230
1
100
AcDbAlignedDimension
 13
50
 23
650
 33
0
 14
50
 24
600
 34
0
  0
DIMENSION
  5
15D
100
AcDbEntity
  8
0
  6
ByLayer
 62
  256
370
   -1
100
AcDbDimension
  2
*D17
 10
50
 20
100
 30
0
 11
45.3125
 21
75
 31
0
 70
   33
 71
    5
 72
    0
  3
Standard
 53
0
210
0
220
0
230
1
100
AcDbAlignedDimension
 13
50
 23
50
 33
0
 14
50
 24
100
 34
0
  0
LWPOLYLINE
  5
15E
100
AcDbEntity
  8
0
  6
ByLayer
 62
  256
370
   -1
100
AcDbPolyline
 90
    4
 70
    1
 43
0
 10
100
 20
260
 10
700
 20
260
 10
700
 20
600
 10
100
 20
600
  0
LWPOLYLINE
  5
15F
100
AcDbEntity
  8
0
  6
ByLayer
 62
  256
370
   -1
100
AcDbPolyline
 90
    4
 70
    1
 43
0
 10
85
 20
245
 10
715
 20
245
 10
715
 20
615
 10
85
 20
615
  0
LWPOLYLINE
  5
160
100
AcDbEntity
  8
0
  6
ByLayer
 62
  256
370
   -1
100
AcDbPolyline
 90
    4
 70
    1
 43
0
 10
366
 20
540
 10
436
 20
540
 10
436
 20
580
 10
366
 20
580
  0
DIMENSION
  5
161
100
AcDbEntity
  8
0
  6
ByLayer
 62
  256
370
   -1
100
AcDbDimension
  2
*D18
 10
760
 20
90
 30
0
 11
750
 21
94.6875
 31
0
 70
   33
 71
    5
 72
    0
  3
Standard
 53
0
210
0
220
0
230
1
100
AcDbAlignedDimension
 13
740
 23
100
 33
0
 14
760
 24
100
 34
0
  0
DIMENSION
  5
162
100
AcDbEntity
  8
0
  6
ByLayer
 62
  256
370
   -1
100
AcDbDimension
  2
*D19
 10
715
 20
580
 30
0
 11
707.5
 21
584.6875
 31
0
 70
   33
 71
    5
 72
    0
  3
Standard
 53
0
210
0
220
0
230
1
100
AcDbAlignedDimension
 13
700
 23
580
 33
0
 14
715
 24
580
 34
0
  0
DIMENSION
  5
163
100
AcDbEntity
  8
0
  6
ByLayer
 62
  256
370
   -1
100
AcDbDimension
  2
*D20
 10
800
 20
615
 30
0
 11
757.5
 21
619.6875
 31
0
 70
   33
 71
    5
 72
    0
  3
Standard
 53
0
210
0
220
0
230
1
100
AcDbAlignedDimension
 13
715
 23
615
 33
0
 14
800
 24
615
 34
0
  0
DIMENSION
  5
164
100
AcDbEntity
  8
0
  6
ByLayer
 62
  256
370
   -1
100
AcDbDimension
  2
*D21
 10
715
 20
600
 30
0
 11
727.5
 21
604.6875
 31
0
 70
   33
 71
    5
 72
    0
  3
Standard
 53
0
210
0
220
0
230
1
100
AcDbAlignedDimension
 13
740
 23
600
 33
0
 14
715
 24
600
 34
0
  0
DIMENSION
  5
165
100
AcDbEntity
  8
0
  6
ByLayer
 62
  256
370
   -1
100
AcDbDimension
  2
*D22
 10
715
 20
700
 30
0
 11
710.3125
 21
657.5
 31
0
 70
   33
 71
    5
 72
    0
  3
Standard
 53
0
210
0
220
0
230
1
100
AcDbAlignedDimension
 13
715
 23
615
 33
0
 14
715
 24
700
 34
0
  0
DIMENSION
  5
166
100
AcDbEntity
  8
0
  6
ByLayer
 62
  256
370
   -1
100
AcDbDimension
  2
*D23
 10
500
 20
1.19972857745771e-030
 30
0
 11
495.3125
 21
122.5
 31
0
 70
   33
 71
    5
 72
    0
  3
Standard
 53
0
210
0
220
0
230
1
100
AcDbAlignedDimension
 13
500
 23
245
 33
0
 14
500
 24
0
 34
0
  0
CIRCLE
  5
167
100
AcDbEntity
  8
0
  6
ByLayer
 62
  256
370
   -1
100
AcDbCircle
 10
450
 20
480
 40
1
  0
CIRCLE
  5
168
100
AcDbEntity
  8
0
  6
ByLayer
 62
  256
370
   -1
100
AcDbCircle
 10
350
 20
480
 40
1
  0
CIRCLE
  5
169
100
AcDbEntity
  8
0
  6
ByLayer
 62
  256
370
   -1
100
AcDbCircle
 10
350
 20
380
 40
1
  0
CIRCLE
  5
16A
100
AcDbEntity
  8
0
  6
ByLayer
 62
  256
370
   -1
100
AcDbCircle
 10
450
 20
380
 40
1
  0
DIMENSION
  5
16B
100
AcDbEntity
  8
0
  6
ByLayer
 62
  256
370
   -1
100
AcDbDimension
  2
*D24
 10
-1.836909530733566e-015
 20
470
 30
0
 11
175
 21
474.6875
 31
0
 70
   33
 71
    5
  3
Standard
 53
0
210
0
220
0
230
1
100
AcDbAlignedDimension
 13
350
 23
480
 33
0
 14
0
 24
480
 34
0
  0
DIMENSION
  5
16C
100
AcDbEntity
  8
0
  6
ByLayer
 62
  256
370
   -1
100
AcDbDimension
  2
*D25
 10
340
 20
700
 30
0
 11
335.3125
 21
590
 31
0
 70
   33
 71
    5
  3
Standard
 53
0
210
0
220
0
230
1
100
AcDbAlignedDimension
 13
350
 23
480
 33
0
 14
350
 24
700
 34
0
  0
DIMENSION
  5
16D
100
AcDbEntity
  8
0
  6
ByLayer
 62
  256
370
   -1
100
AcDbDimension
  2
*D26
 10
450
 20
480
 30
0
 11
400
 21
484.6875
 31
0
 70
   33
 71
    5
  3
Standard
 53
0
210
0
220
0
230
1
100
AcDbAlignedDimension
 13
350
 23
480
 33
0
 14
450
 24
480
 34
0
  0
DIMENSION
  5
16E
100
AcDbEntity
  8
0
  6
ByLayer
 62
  256
370
   -1
100
AcDbDimension
  2
*D27
 10
450
 20
380
 30
0
 11
445.3125
 21
430
 31
0
 70
   33
 71
    5
  3
Standard
 53
0
210
0
220
0
230
1
100
AcDbAlignedDimension
 13
450
 23
480
 33
0
 14
450
 24
380
 34
0
  0
DIMENSION
  5
16F
100
AcDbEntity
  8
0
  6
ByLayer
 62
  256
370
   -1
100
AcDbDimension
  2
*D28
 10
450
 20
380
 30
0
 11
400
 21
384.6875
 31
0
 70
   33
 71
    5
  3
Standard
 53
0
210
0
220
0
230
1
100
AcDbAlignedDimension
 13
350
 23
380
 33
0
 14
450
 24
380
 34
0
  0
DIMENSION
  5
170
100
AcDbEntity
  8
0
  6
ByLayer
 62
  256
370
   -1
100
AcDbDimension
  2
*D29
 10
350
 20
480
 30
0
 11
345.3125
 21
430
 31
0
 70
   33
 71
    5
  3
Standard
 53
0
210
0
220
0
230
1
100
AcDbAlignedDimension
 13
350
 23
380
 33
0
 14
350
 24
480
 34
0
  0
ENDSEC
  0
SECTION
  2
OBJECTS
  0
DICTIONARY
  5
C
330
0
100
AcDbDictionary
281
    1
  3
ACAD_GROUP
350
D
  0
DICTIONARY
  5
D
330
C
100
AcDbDictionary
281
    1
  0
ENDSEC
  0
EOF
